<?xml version="1.0" encoding="UTF-8"?>
<svg id="Capa_1" data-name="Capa 1" xmlns="http://www.w3.org/2000/svg" viewBox="0 0 1077.33 410.67">
  <defs>
    <style>
      .cls-1 {
        fill: #fff;
      }
    </style>
  </defs>
  <g>
    <path class="cls-1" d="M468.48,175.53c-20.67,0-37.34-16.67-37.34-37.34s16.67-37.44,37.34-37.44c8.39,0,15.11,2.54,22.43,8.48,4.39,3.61,5.07,10.04,1.56,14.53-2.05,2.54-5.07,3.8-8,3.8-2.34,0-4.68-.78-6.53-2.34-4.48-3.61-6.63-3.9-9.46-3.9-9.26,0-16.77,7.51-16.77,16.87s7.51,16.77,16.77,16.77c4.58,0,6.44-.88,9.85-4.78,1.85-2.05,4.39-3.32,7.12-3.51,2.73-.2,5.36.78,7.41,2.54,4.29,3.8,4.68,10.24.97,14.53-7.31,8.09-14.24,11.8-25.35,11.8Z"/>
    <path class="cls-1" d="M553.49,131.56v34.42c0,5.36-4.39,9.75-9.85,9.75-2.24,0-4.48-.78-6.14-2.24-3.41,1.46-7.02,2.24-10.73,2.24-14.63,0-26.62-11.99-26.62-26.62s11.99-26.72,26.62-26.72c3.51,0,7.02.68,10.24,2.05,1.75-1.66,4.09-2.63,6.63-2.63,5.46,0,9.85,4.39,9.85,9.75ZM533.9,149.11c0-5.85-5.66-7.12-7.12-7.12-3.9,0-7.02,3.22-7.02,7.12s3.12,7.02,7.02,7.02,7.12-3.12,7.12-7.02Z"/>
    <path class="cls-1" d="M601.07,165.98c0,5.36-4.39,9.75-9.75,9.75-16.38,0-23.6-9.56-23.6-24.96v-13.55h-2.24c-4.1,0-7.41-3.31-7.41-7.41s3.31-7.41,7.41-7.41h2.24v-7.31c0-5.46,4.39-9.85,9.75-9.85s9.85,4.39,9.85,9.85v7.31h4.49c4.1,0,7.41,3.31,7.41,7.41s-3.31,7.41-7.41,7.41h-4.49v13.55c0,3.31.29,4.48.49,4.88.29.19,1.36.49,3.51.49,5.36,0,9.75,4.39,9.75,9.85Z"/>
    <path class="cls-1" d="M653.62,137.7c-.2,2.63-1.37,4.97-3.41,6.73-1.95,1.66-4.49,2.44-7.12,2.24-2.54-.2-4.97-1.37-6.63-3.41-.78-.88-1.66-1.27-2.83-1.27-3.9,0-7.02,3.22-7.02,7.12v16.87c0,5.36-4.39,9.75-9.85,9.75s-9.75-4.39-9.75-9.75v-33.74c0-5.46,4.39-9.85,9.75-9.85,2.34,0,4.49.88,6.24,2.24,3.31-1.46,7.02-2.24,10.63-2.24,6.92,0,13.16,2.92,17.75,8.19,1.66,1.95,2.44,4.49,2.24,7.12Z"/>
    <path class="cls-1" d="M709.88,131.56v34.42c0,5.36-4.39,9.75-9.85,9.75-2.24,0-4.48-.78-6.14-2.24-3.41,1.46-7.02,2.24-10.73,2.24-14.63,0-26.62-11.99-26.62-26.62s11.99-26.72,26.62-26.72c3.51,0,7.02.68,10.24,2.05,1.75-1.66,4.1-2.63,6.63-2.63,5.46,0,9.85,4.39,9.85,9.75ZM690.28,149.11c0-5.85-5.66-7.12-7.12-7.12-3.9,0-7.02,3.22-7.02,7.12s3.12,7.02,7.02,7.02,7.12-3.12,7.12-7.02Z"/>
    <path class="cls-1" d="M759.01,164.03c0,8.39-10.73,11.7-17.55,11.7-14.33,0-25.55-12.19-25.55-27.69,0-12.09,9.56-24.96,23.89-24.96,7.9,0,12.38,2.83,15.8,5.56,2.44,2.05,4,4.68,4.1,7.31.19,2.54-.78,4.97-2.73,7.02-1.85,1.85-4.49,2.83-7.02,2.83-2.05,0-3.9-.59-5.36-1.85-1.17-.98-3.22-2.15-4.49-2.15-2.93,0-4.58,2.44-4.58,6.53,0,5.36,2.24,7.8,7.02,7.8.88,0,1.75-.2,2.44-.59,1.46-.68,2.93-1.07,4.49-1.07,2.05,0,4,.58,5.66,1.85l.29.19c2.34,1.85,3.61,4.58,3.61,7.51Z"/>
    <path class="cls-1" d="M817.71,165.98c0,5.36-4.39,9.75-9.75,9.75s-9.75-4.39-9.75-9.75v-13.07c0-5.27-1.36-10.92-5.27-10.92s-7.02,3.22-7.02,7.12v16.87c0,5.36-4.39,9.75-9.85,9.75s-9.75-4.39-9.75-9.75v-54.8c0-5.46,4.39-9.85,9.75-9.85s9.85,4.39,9.85,9.85v12.19c2.24-.58,4.58-.97,7.02-.97,19.4,0,24.67,19.01,24.77,30.23v13.36Z"/>
    <path class="cls-1" d="M864.02,163.93h-20.87l-2.15,5.27c-1.56,3.9-5.27,6.44-9.56,6.44-1.27,0-2.54-.29-3.8-.78-5.27-2.05-7.8-8.09-5.66-13.36l21.74-54.21c1.56-3.9,5.36-6.44,9.56-6.44s7.9,2.54,9.46,6.34l22.52,54.21c2.15,5.27-.39,11.31-5.56,13.46-1.27.49-2.63.78-4,.78-4,0-7.8-2.34-9.46-6.34l-2.24-5.36ZM856.8,143.36l-3.31-10.92-3.41,10.92h6.73Z"/>
    <path class="cls-1" d="M950.79,126.49c0,14.14-11.51,25.64-25.64,25.64h-13.55v13.26c0,5.66-4.68,10.24-10.33,10.24s-10.24-4.58-10.24-10.24v-54.31c0-5.66,4.58-10.24,10.24-10.24h23.89c14.14,0,25.64,11.51,25.64,25.64ZM925.15,121.42h-13.55v10.24h13.55c2.83,0,5.07-2.34,5.07-5.17s-2.24-5.07-5.07-5.07Z"/>
    <path class="cls-1" d="M1016.21,126.49c0,14.14-11.51,25.64-25.64,25.64h-13.55v13.26c0,5.66-4.68,10.24-10.34,10.24s-10.24-4.58-10.24-10.24v-54.31c0-5.66,4.58-10.24,10.24-10.24h23.89c14.14,0,25.64,11.51,25.64,25.64ZM990.57,121.42h-13.55v10.24h13.55c2.83,0,5.07-2.34,5.07-5.17s-2.24-5.07-5.07-5.07Z"/>
  </g>
  <g>
    <path class="cls-1" d="M451.76,220.5c2.63,0,4.96.38,6.99,1.15,2.03.77,3.77,1.81,5.2,3.12,1.44,1.31,2.58,2.84,3.42,4.57.84,1.74,1.41,3.57,1.71,5.5h-6.25c-.5-2.83-1.72-5.03-3.68-6.62-1.96-1.59-4.5-2.38-7.62-2.38-1.88,0-3.64.43-5.28,1.3-1.64.87-3.07,2.17-4.31,3.9-1.24,1.74-2.22,3.93-2.94,6.58-.72,2.65-1.08,5.76-1.08,9.33,0,3.27.33,6.22,1,8.85.67,2.63,1.62,4.86,2.86,6.69,1.24,1.83,2.7,3.25,4.39,4.24,1.68.99,3.54,1.49,5.58,1.49,2.83,0,5.33-.79,7.51-2.38,2.18-1.59,3.57-4.11,4.16-7.58h6.25c-.99,5.2-3.04,9.06-6.13,11.56-3.1,2.5-7,3.75-11.71,3.75-2.97,0-5.7-.59-8.18-1.78-2.48-1.19-4.59-2.91-6.32-5.17-1.74-2.25-3.09-5.04-4.05-8.36-.97-3.32-1.45-7.11-1.45-11.38,0-4.01.49-7.65,1.49-10.89.99-3.25,2.38-6.02,4.16-8.33,1.78-2.3,3.89-4.08,6.32-5.32,2.43-1.24,5.08-1.86,7.96-1.86Z"/>
    <path class="cls-1" d="M474.8,254.55c0-2.73.4-5.25,1.19-7.58.79-2.33,1.9-4.32,3.31-5.98,1.41-1.66,3.12-2.96,5.13-3.9,2.01-.94,4.2-1.41,6.58-1.41s4.72.48,6.73,1.45c2.01.97,3.72,2.29,5.13,3.98,1.41,1.69,2.5,3.68,3.27,5.99.77,2.3,1.15,4.8,1.15,7.47s-.38,5.09-1.15,7.4c-.77,2.3-1.87,4.32-3.31,6.06-1.44,1.74-3.16,3.1-5.17,4.09s-4.23,1.49-6.65,1.49-4.57-.48-6.58-1.45c-2.01-.97-3.72-2.3-5.13-4.01s-2.52-3.73-3.31-6.06c-.79-2.33-1.19-4.83-1.19-7.51ZM480.45,254.55c0,2.03.26,3.89.78,5.58.52,1.69,1.25,3.15,2.19,4.39.94,1.24,2.06,2.19,3.35,2.86,1.29.67,2.7,1,4.24,1,1.64,0,3.11-.35,4.42-1.04,1.31-.69,2.43-1.66,3.35-2.9.92-1.24,1.61-2.7,2.08-4.39.47-1.68.71-3.52.71-5.5s-.24-3.67-.71-5.35c-.47-1.68-1.15-3.15-2.04-4.39-.89-1.24-2-2.22-3.31-2.94-1.31-.72-2.81-1.08-4.5-1.08s-3.19.35-4.5,1.04c-1.31.69-2.42,1.65-3.31,2.86-.89,1.22-1.57,2.67-2.04,4.35-.47,1.69-.71,3.52-.71,5.5Z"/>
    <path class="cls-1" d="M514.36,236.79h5.5v4.91c.99-1.73,2.32-3.17,3.98-4.31,1.66-1.14,3.43-1.71,5.32-1.71,2.73,0,4.88.73,6.47,2.19,1.59,1.46,2.73,3.31,3.42,5.54.4-.94.89-1.87,1.49-2.79.59-.92,1.31-1.75,2.16-2.49.84-.74,1.82-1.34,2.94-1.78,1.12-.45,2.39-.67,3.83-.67,3.57,0,6.37,1.35,8.4,4.05,2.03,2.7,3.05,6.68,3.05,11.93v20.74h-5.5v-21.19c0-1.39-.12-2.71-.37-3.98-.25-1.26-.66-2.37-1.23-3.31-.57-.94-1.3-1.7-2.19-2.27-.89-.57-1.98-.85-3.27-.85-1.09,0-2.12.22-3.09.67-.97.45-1.81,1.15-2.53,2.12-.72.97-1.29,2.19-1.71,3.68-.42,1.49-.63,3.27-.63,5.35v19.78h-5.5v-21.19c0-3.02-.58-5.51-1.75-7.47-1.17-1.96-2.94-2.94-5.32-2.94s-4.36,1.02-5.8,3.05c-1.44,2.03-2.16,4.96-2.16,8.77v19.78h-5.5v-35.61Z"/>
    <path class="cls-1" d="M569.97,236.79h5.5v5.28c1.09-1.68,2.53-3.17,4.31-4.46,1.78-1.29,4.06-1.93,6.84-1.93,1.98,0,3.89.45,5.73,1.34,1.83.89,3.44,2.17,4.83,3.83,1.39,1.66,2.49,3.67,3.31,6.02.82,2.35,1.23,4.97,1.23,7.84s-.4,5.32-1.19,7.62c-.79,2.3-1.87,4.29-3.23,5.95-1.36,1.66-2.99,2.96-4.87,3.9-1.88.94-3.92,1.41-6.1,1.41-1.39,0-2.65-.19-3.79-.56-1.14-.37-2.16-.85-3.05-1.45s-1.67-1.26-2.34-2.01c-.67-.74-1.23-1.51-1.67-2.3v22.6h-5.5v-53.08ZM596.06,254.7c0-4.26-.96-7.66-2.86-10.19-1.91-2.53-4.5-3.79-7.77-3.79-1.39,0-2.7.33-3.94,1-1.24.67-2.34,1.61-3.31,2.83-.97,1.21-1.74,2.66-2.3,4.35-.57,1.69-.85,3.54-.85,5.58,0,2.13.26,4.06.78,5.8.52,1.74,1.25,3.21,2.19,4.42.94,1.21,2.03,2.16,3.27,2.83,1.24.67,2.58,1,4.02,1,3.27,0,5.88-1.21,7.84-3.64,1.96-2.43,2.94-5.82,2.94-10.19Z"/>
    <path class="cls-1" d="M638.07,272.4h-5.5v-5.2c-1.14,1.69-2.59,3.17-4.35,4.46-1.76,1.29-4.03,1.93-6.8,1.93-1.98,0-3.89-.45-5.72-1.34-1.83-.89-3.45-2.17-4.83-3.83-1.39-1.66-2.49-3.65-3.31-5.99-.82-2.33-1.23-4.96-1.23-7.88,0-2.73.38-5.25,1.15-7.58.77-2.33,1.85-4.32,3.23-5.98,1.39-1.66,3.02-2.96,4.91-3.9,1.88-.94,3.92-1.41,6.1-1.41,1.39,0,2.64.19,3.75.56,1.12.37,2.12.85,3.01,1.45s1.67,1.26,2.34,2.01c.67.74,1.25,1.51,1.75,2.31v-5.2h5.5v35.61ZM611.97,254.55c0,4.36.99,7.78,2.97,10.26,1.98,2.48,4.54,3.72,7.66,3.72,1.39,0,2.7-.33,3.94-1,1.24-.67,2.34-1.61,3.31-2.83.97-1.21,1.73-2.66,2.3-4.35.57-1.68.85-3.54.85-5.58s-.26-4.06-.78-5.8c-.52-1.73-1.25-3.21-2.19-4.42-.94-1.21-2.03-2.16-3.27-2.83-1.24-.67-2.58-1-4.01-1-1.54,0-2.96.31-4.27.93-1.31.62-2.45,1.51-3.42,2.68-.97,1.17-1.72,2.6-2.27,4.31-.55,1.71-.82,3.68-.82,5.91Z"/>
    <path class="cls-1" d="M663.12,240.95c-.69-.15-1.54-.22-2.53-.22-2.18,0-3.98,1-5.39,3.01s-2.12,5.29-2.12,9.85v18.81h-5.5v-35.61h5.5v4.46h.22c.25-.59.61-1.21,1.08-1.86.47-.64,1.03-1.25,1.67-1.82.64-.57,1.36-1.03,2.16-1.38.79-.35,1.66-.52,2.6-.52.84,0,1.61.07,2.3.22v5.06Z"/>
    <path class="cls-1" d="M666.62,236.79h4.02v-11.45h5.5v11.45h7.58v4.76h-7.58v20.45c0,2.23.37,3.79,1.12,4.68.74.89,1.98,1.34,3.72,1.34.54,0,1.08-.02,1.6-.07.52-.05,1-.12,1.45-.22v4.68c-.55.15-1.23.26-2.04.33s-1.5.11-2.04.11c-3.12,0-5.45-.84-6.99-2.53-1.54-1.68-2.3-4.54-2.3-8.55v-20.22h-4.02v-4.76Z"/>
    <path class="cls-1" d="M702.01,235.67c2.68,0,4.96.55,6.84,1.64,1.88,1.09,3.42,2.52,4.61,4.27,1.19,1.76,2.04,3.73,2.56,5.91.52,2.18.78,4.39.78,6.62,0,.3-.01.67-.04,1.12-.03.45-.06.79-.11,1.04h-24.46c.1,1.78.43,3.43,1,4.94.57,1.51,1.31,2.81,2.23,3.9.92,1.09,1.98,1.93,3.2,2.53,1.21.59,2.52.89,3.9.89,1.73,0,3.26-.36,4.57-1.08,1.31-.72,2.34-1.8,3.09-3.23h6.1c-.5,1.19-1.14,2.35-1.93,3.49-.79,1.14-1.75,2.14-2.86,3.01-1.12.87-2.39,1.56-3.83,2.08-1.44.52-3.05.78-4.83.78-2.43,0-4.65-.45-6.65-1.34-2.01-.89-3.72-2.17-5.13-3.83-1.41-1.66-2.52-3.69-3.31-6.1-.79-2.4-1.19-5.14-1.19-8.22,0-2.83.41-5.36,1.23-7.62.82-2.25,1.92-4.19,3.31-5.8,1.39-1.61,3.02-2.85,4.91-3.72,1.88-.87,3.89-1.3,6.02-1.3ZM711.15,251.43c-.05-1.49-.3-2.89-.74-4.2-.45-1.31-1.07-2.45-1.86-3.42-.79-.97-1.75-1.72-2.86-2.27-1.11-.54-2.39-.82-3.83-.82s-2.71.32-3.83.97c-1.12.65-2.08,1.48-2.9,2.49-.82,1.02-1.48,2.16-1.97,3.42-.5,1.26-.79,2.54-.89,3.83h18.88Z"/>
    <path class="cls-1" d="M770.78,248.9h-22.68v23.49h-5.95v-50.71h5.95v21.71h22.68v-21.71h5.95v50.71h-5.95v-23.49Z"/>
    <path class="cls-1" d="M784.23,254.55c0-2.73.4-5.25,1.19-7.58.79-2.33,1.9-4.32,3.31-5.98,1.41-1.66,3.12-2.96,5.13-3.9,2.01-.94,4.2-1.41,6.58-1.41s4.72.48,6.73,1.45c2.01.97,3.72,2.29,5.13,3.98,1.41,1.69,2.5,3.68,3.27,5.99.77,2.3,1.15,4.8,1.15,7.47s-.38,5.09-1.15,7.4c-.77,2.3-1.87,4.32-3.31,6.06-1.44,1.74-3.16,3.1-5.17,4.09s-4.23,1.49-6.65,1.49-4.57-.48-6.58-1.45c-2.01-.97-3.72-2.3-5.13-4.01s-2.52-3.73-3.31-6.06c-.79-2.33-1.19-4.83-1.19-7.51ZM789.88,254.55c0,2.03.26,3.89.78,5.58.52,1.69,1.25,3.15,2.19,4.39.94,1.24,2.06,2.19,3.35,2.86,1.29.67,2.7,1,4.24,1,1.64,0,3.11-.35,4.42-1.04,1.31-.69,2.43-1.66,3.35-2.9.92-1.24,1.61-2.7,2.08-4.39.47-1.68.71-3.52.71-5.5s-.24-3.67-.71-5.35c-.47-1.68-1.15-3.15-2.04-4.39-.89-1.24-2-2.22-3.31-2.94-1.31-.72-2.81-1.08-4.5-1.08s-3.19.35-4.5,1.04c-1.31.69-2.42,1.65-3.31,2.86-.89,1.22-1.57,2.67-2.04,4.35-.47,1.69-.71,3.52-.71,5.5Z"/>
    <path class="cls-1" d="M823.79,236.79h5.5v4.91c1.39-2.33,2.95-3.91,4.68-4.76,1.73-.84,3.42-1.26,5.06-1.26,1.34,0,2.7.27,4.09.82,1.39.55,2.64,1.44,3.75,2.68,1.12,1.24,2.03,2.88,2.75,4.91.72,2.03,1.08,4.56,1.08,7.58v20.74h-5.5v-20.37c0-3.72-.64-6.52-1.93-8.4-1.29-1.88-3.1-2.83-5.43-2.83-2.68,0-4.77,1.05-6.28,3.16-1.51,2.11-2.27,5.27-2.27,9.48v18.96h-5.5v-35.61Z"/>
    <path class="cls-1" d="M889.06,272.4h-5.5v-5.2c-1.14,1.83-2.59,3.36-4.35,4.57-1.76,1.21-4.03,1.82-6.8,1.82-1.98,0-3.89-.45-5.72-1.34-1.83-.89-3.45-2.17-4.83-3.83-1.39-1.66-2.49-3.65-3.31-5.99-.82-2.33-1.23-4.96-1.23-7.88,0-2.73.38-5.25,1.15-7.58.77-2.33,1.85-4.32,3.23-5.98,1.39-1.66,3.02-2.96,4.91-3.9,1.88-.94,3.92-1.41,6.1-1.41,1.39,0,2.64.19,3.75.56,1.12.37,2.12.85,3.01,1.45s1.67,1.26,2.34,2.01c.67.74,1.25,1.51,1.75,2.31v-23.12h5.5v53.53ZM862.97,254.55c0,4.41.99,7.84,2.97,10.3,1.98,2.45,4.54,3.68,7.66,3.68,1.39,0,2.7-.33,3.94-1,1.24-.67,2.34-1.61,3.31-2.83.97-1.21,1.73-2.66,2.3-4.35.57-1.68.85-3.54.85-5.58s-.26-4.06-.78-5.8c-.52-1.73-1.25-3.21-2.19-4.42-.94-1.21-2.03-2.16-3.27-2.83-1.24-.67-2.58-1-4.01-1-3.42,0-6.07,1.26-7.96,3.79-1.88,2.53-2.83,5.87-2.83,10.04Z"/>
    <path class="cls-1" d="M925.05,272.4h-5.5v-4.91c-1.39,2.33-2.95,3.92-4.68,4.76-1.74.84-3.42,1.26-5.06,1.26-1.34,0-2.7-.27-4.09-.82-1.39-.54-2.64-1.44-3.75-2.68-1.12-1.24-2.03-2.87-2.75-4.91-.72-2.03-1.08-4.56-1.08-7.58v-20.74h5.5v20.37c0,3.72.64,6.51,1.93,8.36,1.29,1.86,3.1,2.79,5.43,2.79,2.68,0,4.77-1.04,6.28-3.12,1.51-2.08,2.27-5.23,2.27-9.44v-18.96h5.5v35.61Z"/>
    <path class="cls-1" d="M950.1,240.95c-.69-.15-1.54-.22-2.53-.22-2.18,0-3.98,1-5.39,3.01s-2.12,5.29-2.12,9.85v18.81h-5.5v-35.61h5.5v4.46h.22c.25-.59.61-1.21,1.08-1.86.47-.64,1.03-1.25,1.67-1.82.64-.57,1.36-1.03,2.16-1.38.79-.35,1.66-.52,2.6-.52.84,0,1.61.07,2.3.22v5.06Z"/>
    <path class="cls-1" d="M984.53,272.4h-5.5v-5.2c-1.14,1.69-2.59,3.17-4.35,4.46-1.76,1.29-4.03,1.93-6.8,1.93-1.98,0-3.89-.45-5.72-1.34-1.83-.89-3.45-2.17-4.83-3.83-1.39-1.66-2.49-3.65-3.31-5.99-.82-2.33-1.23-4.96-1.23-7.88,0-2.73.38-5.25,1.15-7.58.77-2.33,1.85-4.32,3.23-5.98,1.39-1.66,3.02-2.96,4.91-3.9,1.88-.94,3.92-1.41,6.1-1.41,1.39,0,2.64.19,3.75.56,1.12.37,2.12.85,3.01,1.45s1.67,1.26,2.34,2.01c.67.74,1.25,1.51,1.75,2.31v-5.2h5.5v35.61ZM958.43,254.55c0,4.36.99,7.78,2.97,10.26,1.98,2.48,4.54,3.72,7.66,3.72,1.39,0,2.7-.33,3.94-1,1.24-.67,2.34-1.61,3.31-2.83.97-1.21,1.73-2.66,2.3-4.35.57-1.68.85-3.54.85-5.58s-.26-4.06-.78-5.8c-.52-1.73-1.25-3.21-2.19-4.42-.94-1.21-2.03-2.16-3.27-2.83-1.24-.67-2.58-1-4.01-1-1.54,0-2.96.31-4.27.93-1.31.62-2.45,1.51-3.42,2.68-.97,1.17-1.72,2.6-2.27,4.31-.55,1.71-.82,3.68-.82,5.91Z"/>
    <path class="cls-1" d="M1007.42,244.89c-.2-1.29-.73-2.33-1.6-3.12-.87-.79-1.97-1.19-3.31-1.19-1.49,0-2.67.4-3.53,1.19-.87.79-1.3,1.93-1.3,3.42,0,.74.09,1.4.26,1.97.17.57.49,1.1.97,1.6.47.5,1.1.98,1.9,1.45.79.47,1.81.98,3.05,1.52,1.93.84,3.52,1.7,4.76,2.56,1.24.87,2.22,1.77,2.94,2.71.72.94,1.2,1.91,1.45,2.9.25.99.37,2.06.37,3.2,0,1.34-.25,2.64-.74,3.9-.5,1.26-1.23,2.38-2.19,3.35s-2.17,1.75-3.61,2.34c-1.44.59-3.07.89-4.91.89-3.27,0-5.91-.95-7.92-2.86s-3.14-4.4-3.38-7.47h5.35c.1,1.59.63,2.89,1.6,3.9.97,1.02,2.46,1.52,4.5,1.52s3.58-.56,4.5-1.67c.92-1.12,1.38-2.34,1.38-3.68,0-1.24-.43-2.4-1.3-3.49-.87-1.09-2.52-2.18-4.94-3.27-1.74-.74-3.2-1.5-4.39-2.27-1.19-.77-2.16-1.6-2.9-2.49-.74-.89-1.28-1.88-1.6-2.97-.32-1.09-.48-2.3-.48-3.64s.23-2.5.71-3.64c.47-1.14,1.14-2.14,2.01-3.01.87-.87,1.93-1.56,3.2-2.08,1.26-.52,2.69-.78,4.27-.78s2.99.27,4.2.82c1.21.55,2.24,1.25,3.09,2.12.84.87,1.49,1.85,1.93,2.94.45,1.09.72,2.21.82,3.35h-5.13Z"/>
  </g>
  <g>
    <circle class="cls-1" cx="131.02" cy="258.54" r="35.46"/>
    <path class="cls-1" d="M347.01,130.41c0-16.07-13.03-29.11-29.11-29.11h-39.1v-35.85c0-6.56-5.32-11.87-11.87-11.87h-104.72c-6.56,0-11.87,5.32-11.87,11.87v35.85h-39.1c-16.08,0-29.11,13.03-29.11,29.11v105.37c0,5.63,1.6,10.89,4.37,15.34,3.56-21.36,22.16-37.7,44.51-37.7,24.89,0,45.13,20.25,45.13,45.13,0,2.15-.16,4.26-.45,6.33h85.45c3.03,18.6,19.16,32.8,38.62,32.8,21.61,0,39.13-17.52,39.13-39.13,0-.85-.04-1.69-.09-2.53,5.08-5.24,8.2-12.37,8.2-20.24v-105.37ZM201.09,74.79h59.54v26.51h-59.54v-26.51ZM222.03,235.48c-18.27,0-36.54-29.28-36.54-51.39,0-25.89,18.27-51.72,36.54-51.72,0,0-18.39,22.15-17.87,50.72.52,28.56,17.87,52.39,17.87,52.39ZM269.72,237.13c-23.8,0-43.09-24.19-43.09-54.04s19.29-54.04,43.09-54.04,43.09,24.19,43.09,54.04-19.29,54.04-43.09,54.04Z"/>
  </g>
</svg>