<?xml version="1.0" encoding="UTF-8"?>
<svg id="Capa_1" data-name="Capa 1" xmlns="http://www.w3.org/2000/svg" viewBox="0 0 80.67 80.7">
  <defs>
    <style>
      .cls-1 {
        fill: #f9eded;
      }
    </style>
  </defs>
  <path class="cls-1" d="M31.58.04c5.9-.07,11.83-.04,17.73.04,9.51.13,18.36-.11,25.29,7.43,6.16,6.71,5.9,15.36,6.02,23.92.08,5.94.08,11.91,0,17.85-.13,9.77.09,18.87-7.92,25.78-6.63,5.72-15.11,5.47-23.38,5.58-5.97.08-11.98.08-17.95,0-9.53-.13-18.39.11-25.31-7.46C-.08,66.49.17,57.86.06,49.33-.02,43.36-.02,37.36.06,31.38.17,22.84-.08,14.21,6.08,7.51,13-.02,22.06.16,31.58.04ZM29.88,7.35c-5.34.09-12.06-.04-16.5,3.31-6.17,4.65-5.9,12.02-6.02,19.03-.13,7.09-.12,14.25,0,21.34.1,5.49-.11,12.06,3.5,16.57,4.72,5.9,11.89,5.61,18.8,5.74,7.09.13,14.25.12,21.34,0,7.01-.12,14.34.15,19.01-5.99,3.39-4.47,3.2-10.95,3.29-16.31.13-7.09.12-14.25,0-21.34-.1-5.89.14-12.63-4.09-17.26-4.74-5.2-11.71-4.92-18.21-5.04-6.99-.12-14.13-.15-21.13-.04Z"/>
  <path class="cls-1" d="M40.12,19.64c16.39-.18,26.53,18,17.68,31.88-8.32,13.04-27.6,12.62-35.37-.73s1.89-30.96,17.69-31.14ZM39.5,26.95c-10.04.6-15.94,11.85-10.61,20.46,5.05,8.16,16.82,8.58,22.39.74,6.54-9.21-.56-21.87-11.78-21.2Z"/>
  <path class="cls-1" d="M61.68,13.98c3.83-.14,6.33,4.04,4.35,7.34-1.75,2.93-5.94,3.19-8.02.46-2.38-3.13-.26-7.65,3.66-7.8Z"/>
</svg>