<?xml version="1.0" encoding="UTF-8"?>
<svg id="Capa_1" data-name="Capa 1" xmlns="http://www.w3.org/2000/svg" viewBox="0 0 421.33 272.58">
  <defs>
    <style>
      .cls-1 {
        fill: #fff;
      }

      .cls-2 {
        fill: #a21f3c;
      }

      .cls-3 {
        fill: #eabc68;
      }

      .cls-4 {
        fill: #3fa194;
      }

      .cls-5 {
        fill: #292041;
      }
    </style>
  </defs>
  <path class="cls-1" d="M408.05,119.69c-.88-.34-1.67-1.79-2.4-2.46-1.33-1.21-3.01-1.95-4.24-3.43-1.19-1.43-1.6-3.08-2.48-4.64-3.43-6.07-9.4-7.71-15.3-10.39-1.99-.9-5.73-3.28-7.64-3.6-1.35-.23-1.47,1.5-.69,2.22.78.73,4.55,2.68,5.67,3.18.77.34,1.71.72,2.52.93,1.15.3,2.59.24,3.53.79.97.57,2.45,3.48,2.29,4.59-.28,1.95-1.97,1.09-2.74,1.36-.91.32-1.25,1.95-2.35,2-.95.05-.6-.9-1.17-1.2-.52-.27-3.09.65-1.73-1.29,1.07-1.53,1.97-.21,3.32-.33,2.07-.2,3.49-2.7,1.66-4.21-2.29-1.88-5.62-.19-7.76,1.11-1.37.83-4.36,3.9-5.85,2.58-1.96-1.74-1.76-3.47-2.47-5.52-.56-1.65-4.09-1.57-5.46-2.3-1.05-.57-2.57-2.11-3.66-2.83-1.07-.71-7.16-4.44-6.76-1.03.26,2.26,4.05,2.98,5.67,3.63,2.55,1.03,4.84,3.09,7.27,4.38.33.18.31.46.02.64-.52.34-5.18-.07-5.89-.39-1.2-.54-.03-1.06-.2-1.73-.36-1.45-2.91-.55-3.81-.96-.9-.42-.93-2.15-1.71-2.39-.8-.24-1.52.19-2.27.13-1.65-.13-4.12-1.66-4.07-3.53.03-1.05,1.23-1.08,1.58-1.88.8-1.83-1.21-2.8-1.83-4.11-.39-.84-.23-2.24-1.41-2.49-1.83-.39-1.33,1.99-2.37,2.3-2.19.65-2.56-3.3.5-3.62,3.14-.33,2.79,1.66,4.1,3.42.98,1.33,2.35.98,1.71-.41-.12-.26-1.73-1.58-.62-1.93.89-.28.97.6,1.39.94.97.8,1.91.01,2.9-.1,1.66-.18,3.59.21,4.65,1.62.9,1.21.74,3.08,2.49,3.34,2.14.31,3.55.18,5.62,1.29.42.23,1.03.95,1.47,1.23.85.55,3.8,2.53,3.82.41.01-1.66-3.5-2.33-4.87-3.36-5.82-4.35-11.03-9.38-16.52-14.14-4.31-3.73-10.75-9.91-16.36-10.85-4.08-.68-8.36-.94-12.45-1.58-.84-.13-4.23-1.7-3.54.52.58,1.85,6.02,1.28,7.45,1.31.53.01,3.24.1,2.87.99-1.21.99-2.66.9-4.14,1.15-.36.06-.65.37-1.14.39-1.65.09-1.87-2.08-3.64-1.5-.61.2-.17,1.33-.56,2.03-.58,1.04-1.57.88-2.39.21-2.08-1.71.48-4.9-1.31-6.03-.73-.46-3.23-1.5-4.09-1.74-2.47-.68-4.9-.97-7.45-1.83-3.23-1.09-8.25-3.94-11.54-3.68-2.55.2-4.22,2.03-6.33,3.07-5.16,2.53-17.58,3.18-23.58,3.41-2.5.09-4.42-.04-6.56-1.42-1.83-1.18-2.23-2.56-4.71-3.06-.67-.13-1.3.03-2.01-.15-.83-.21-1.23-.98-1.86-1.37-1.92-1.21-3.3-.84-5.3-1.18-1.72-.29-4.08-1.45-5.67-1.45h-8.85c-.37,0-.4.95-.22,1.3.71,1.41,7.86.29,5.61,3.44-.11.15-2.25,2.27-2.39,2.35-1.18.67-5.84,1.6-7.32,1.75-.9.1-1.89-.08-2.8,0-4.91.48-10.88,5.65-15.93,7.17-.62.19-1.25.24-1.88.17-1.3-.15-2.17-1.14-3.33-1.52-2.24-.74-3.52.08-5.62.24-5.64.42-10.55-.41-16.35.7-2.05.39-3.81,1.26-5.64,1.7-2.38.57-4.55-.63-6.87-.96-2.69-.39-5.44-.26-8.21-.86-3.47-.74-6.58-3.43-9.99-3.61-2.41-.13-5.34.91-7.63,1.67-1.39.46-2.82,1.57-4.44,1.35-1.69-.23-6.11-3.54-6.8-5.1-.83-1.89,1.03-2.16,1.03-3.42,0-1.71-2.42-1.98-3.17-.38-.48,1.02-.08,3.2-1.76,2.1-2.02-1.31-1.13-2.63-4.55-1.82-.55.13-1.98.86-2.48.86h-4.1c-2.98,0-7.42,6.07-10.4,7.52-2.05.99-5.05,1.13-6.38,3.34-.75,1.25-.73,3.36-2.39,3.88-1.96.62-4.02-3.01-6.51-2.63-2.18.33-4.92,4.61-6.6,6.14-2.36,2.16-5.49,4.68-7.99,6.8-6.15,5.2-12.36,9.34-19,13.82-1.74,1.18-3.78,2.16-5.29,3.67-1.35,1.35-2.16,3.46-3.59,4.83-4,3.84-14.26,4.61-16.78,8.7-1.41,2.28.9,2.41.52,4.4-.45,2.37-3.92,3.64-4.23,6.14-.61,4.94,3.9,6.92,5.62,10.91-.39,2.23.46,7.99-2.53,8.59-2.6.52-4.72,0-7.08,1.99-1.15.97-1.34,2.26-2.04,3.14-.53.67-2.22.77-2.7,1.83-.19.42-.2,2.19-.07,2.65.34,1.17,2.17,2.02,3.24,2.38,1.98.67,9.61,2.88,11.29,2.74.58-.05,1.29-.42,1.74-.4.57.02,3.68,2.35,4.2,2.89,2.02,2.12,2.14,4.58,4.97,6.37,2.29,1.45,4.39,1.59,6.26,3.78.77.9,2.34,3.65,3.3,4.04,1.74.71,3.78-1.47,5.22-.47,1.27.89-.51,1.86-.43,2.91.06.83,2.3,1.98,3.01,2.51,3.72,2.82,5.28,4.65,10.5,4.07.39,1.07-.11,2.1.02,3.32.16,1.36,1.11,3.11,1.23,4.6.57,1.13,2.88,1.19,3.83.5.74-.53,1.14-2.18,2.2-2.35,1.04-.16,2.22,1.73,3.82.81.69-.4.37-1.11,1.74-1.06.43.01.81.26,1.29.22,1.23-.11,1.63-1.42,2.52-2.03.96-.66,3.23-.75,2.76-2.34-.2-.67-2.03-1.43-1.28-2.43.74-.99,1.97-.06,2.83.12,1.07.22,2.24.33,3.35.22.99-.1,2.43-.92,3.44-.2.3.21.81,2.48,1.24,3.29.26.49,2.51,3.92,2.76,4.15.59.52,1,.35,1.68.15.73-.22.88-.97,1.9-1.11,2.58-.36,4.52.37,7.15-1.05,1.03-.55,1.43-1.61,2.83-1.2,1.88.56,4.16,5.1,5.65,6.55.62,1.41-.51,2.78-.92,4.15-1.15,3.88-.75,8.09-2,11.6-.5,1.39-2.36,3.58-1.28,4.97,1.12,1.45,2.9-1.8,4.09.23,1.55,2.64-3.4,3.23-4.3,4.53-1.67,2.41,2.85,6.41,5.84,4.97,2.82-1.36.78-4.78,2.19-5.63,1.96-1.18,1.24,1.47,1.35,2.29.12.91,1.42,1.71,2.2,2.12,1.1.59,3.97,1.96,5.08,2.04,2.3.16,2.26-4.07,4.95-4.49,1.97-.31,4.05.21,3.33,2.58-.55.11-3.25.85-3.57,1.07-.75.53-.84,1.73-1.41,2.26-.99.91-4.22.73-3.84,2.77.21,1.15,2.71,1.93,3.6,3.32.9,1.41,2.3,6.85,2.85,7.3,1.09.91,5.93.75,6.38,1.4.67.97-1.25,1.03-1.39,1.44-.12.33-.07,1.28.02,1.66.47,2.09,4.12,1.07,4.27,1.78.15.7-2.3,1.02-1.42,2.28.28.39,3.95.15,4.76.2.94.06,2.08.41,3.01.44,2,.06,4.09-.58,6.05-.44,1.79.13,3.4,1.49,5.01.25.57-.98,3.78-2.42,4.06-3.07.2-.46.03-.92.16-1.35.15-.52,1.08-1.11,1.21-2.05.18-1.26.53-2.34.66-3.42.23-1.92-.25-3.93.46-5.8.69-1.8,5.12-4.23,7.01-4.01,2.15.25,1.8,3.13,4.92,2.55,2.48-.46,2.88-4.2,2.2-6.2-.38-1.14-1.93-2.43-2-3.17-.06-.76,1.04-1.2,1.2-1.73.98-3.28-4.12-6.9-3.36-10.92.22-1.17,1.37-2.02,1.2-3.23-.22-1.6-2.02-2.25-2.55-3.84-1.44-4.35,3.02-4.98,6.18-5.37,1.76-.22,3.3.01,4.93-.02,1.28-.02,3.17-.75,4.33-.67,1.57.11,3.02,2.15,4.55,2.18.98.03,1.7-.81,2.61-.87,1.23-.08,3.09.79,4.5.86,1.18.06,2.73-.13,3.72-.81,1.05-.72.58-1.74.73-2.74.32-2.2,2.77-3.28,3.96-4.89,1.1-1.48,1.69-3.74,3.37-4.84.44-.29.96-.33,1.36-.58,1.85-1.16,2.61-5.04,5.53-5.91.69-.21,3.17-.61,3.26.44.08.88-1.86,1.39-.85,3.42.54,1.08,6.55,6.1,7.68,6.35.93.21,2.26-.19,3.08.16,1.21.51,1.92,3.97,3.08,4.48,1.02.44,1.72-.05,2.65-.07.6-.01,1.86.6,2.27-.15.76-1.37-1.52-2.51-1.69-3.35-.19-.95.45-3.33,1.03-4.14,1.21-1.7,2.13-1.4,3.75-2.08,2.08-.87,3.45-2.54,5.58-3.27,1.57-.54,1.73-.08,2.98-1.24,1.1-1.02,2.05-2.25,3.26-3.11,1.08-.77,2.45-1.25,3.51-2.11,2.19-1.76,2.05-3.81,3.46-6.04,1.04-1.64,3.92-4.66,5.88-4.92,1.32-.17,2.17.36,3.22.37,1.28,0,5.33-1.48,5.5-2.89.18-1.49-2.52-3.87-2.57-5.83-.05-2.08,2.38-2.66,2.53-4.35.13-1.54-2.37-4.57,0-4.97,2.62-.45,1.34,2.02,3.16,1.88.93-.07,4.41-2.29,4.62-3.18.44-1.9-2.04-3.53-1.04-6.22.69-1.86,2.57-3.24,4.33-3.98.48-.2,1.15-.09,1.72-.55.84-.68,1.63-2.27,2.38-3.02,1.33-1.34,5.2-2.67,6.81-1.39,1.65,1.31,3.56,8.13,4.64,8.74.67.38,1.39-.1,2.03-.08,5.68.13,11.47,6.63,16.86,2.57,1.76-1.33,1.98-3.84,3.92-4.95,1.11-.09-.03,2.59,1.16,3.33.45.28,1.19-.19,1.81-.11.78.1,1.2,1.06,2.29.54,1.92-.93-1.15-5.5,1.94-6.07,2.24-.41,2.27,1.89,4.11,2.61,2.07.81,1.94-.43,3.23-.87.37-.13,1.57-.12,1.71-.34.71-1.15-2.11-1.86-.93-3.2,1.42-1.62,2.04,1.18,2.47,1.4.4.2,1.1.09,1.64.3.41.16.63.59,1.07.67,1.19.22,2.44-.76,3.66-.64.8.08,3.36,1.34,3.76.06.21-.65-1.12-2,.25-2.56.29-.12,2.86.71,3.59.74.64.03,1.68-.2,2.22-.53.08-.05,1.06-1.04,1.09-1.11.28-.54.16-1.52.21-1.58.09-.1,2.22.09,2.69,0,.66-.13.98-1.03,1.62-1.21.62-.17,2.78.71,2.81-.62.01-.55-.8-.97-.64-1.62.09-.13,2.8-.46,3.11-.43,1.03.1,1.72,1.89,2.87,1.36.98-.45-.04-1.97,1.24-3.1.89-.78,1.67-.47,2.66-.91.89-1.33,1.37-3.85,2.16-5.07,1.35-2.06,2.29,1.63,3.83,1.68,1.18.04.85-.61,1.4-1.22.26-.29.66-.1.98-.49.5-.6.25-1.24,1.28-1.34,1.16-.1,1.96.9,3.12,1.21,1.6.43,1.89.26,3.53,1.01,1.85.85,4.12.07,6.08-.05,1.25-.08,2.7.15,3.91.02.27-.03.64-.02.72-.35.36-1.5-3.24-1.75-4.13-2.09Z"/>
  <path class="cls-1" d="M189.95,42.43c-1.44,0-2.7-.63-3.47-1.73-.48-.68-1.16-2.16-.35-4.34,1.32-3.57,5.28-5.25,8.45-6.61.77-.33,1.5-.64,2.03-.91.56-.29,1.19-.7,1.84-1.13,1.19-.78,2.53-1.66,4.05-2.19,1.73-.61,4.95-.73,7.34-.73,1.54,0,2.97.06,3.93.16,2.03.21,4.48.72,5.45,2.79.55,1.17.43,2.54-.33,3.66-.4.61-1.38,1.62-3.35,1.62-.81,0-1.66-.17-2.34-.3-.13-.03-.29-.06-.42-.08-.87.2-3.11.79-3.79.98-1.8.51-3.83,1.63-5.79,2.71-1.46.8-2.96,1.63-4.48,2.28-.78.33-1.65.58-2.49.82-.49.14-1.18.34-1.57.49-.19.27-.48.69-.95,1.08-1.08.91-2.45,1.43-3.76,1.43h0Z"/>
  <path class="cls-1" d="M191.74,38.66c.45-.38.55-.96,1.25-1.34,1.07-.58,3.2-.96,4.52-1.52,3.44-1.47,7.07-4.11,10.64-5.12.63-.18,4.08-1.1,4.49-1.12.71-.04,3.25.83,3.71.14.87-1.3-2.25-1.64-2.9-1.71-2.17-.23-8.06-.24-9.94.42-1.91.67-3.7,2.21-5.49,3.14-2.66,1.38-7.89,2.81-9.03,5.87-.85,2.29,1.4,2.36,2.74,1.23Z"/>
  <path class="cls-1" d="M232.59,33.54c-1.22,0-2.33-.58-3.06-1.58-1.51-2.08-.05-4.55.65-5.73.64-1.08,1.44-2.21,1.83-2.7l.18-.23c1.02-1.32,2.72-3.52,5.63-3.56h.05c.56,0,1.54.18,2.27.32,1.29.26,2.62.53,3.41,1.77,1,1.57.64,4.42-.72,5.75-.93.91-2.09,1.22-3.12,1.5-.54.15-1.28.34-1.58.57-.07.08-.19.23-.29.34-1.24,1.49-2.93,3.53-5.25,3.53h0Z"/>
  <path class="cls-1" d="M236.01,27.44c1.45-1.33,3.86-1.24,4.66-2.03.35-.34.48-1.61.28-1.93-.13-.21-2.71-.69-3.1-.68-1.55.02-2.58,1.51-3.44,2.61-.55.71-2.92,4.03-2.41,4.75,1,1.39,3.44-2.21,4-2.72Z"/>
  <path class="cls-1" d="M168.42,54.82c-.07,0-.14,0-.2,0-1.81-.07-3.5-1.19-4.21-2.79-.65-1.47-.41-3.11.65-4.36,1.55-1.84,4.93-2.83,7.32-2.83,1.42,0,2.61.34,3.52,1,2.5,1.81,2.01,4.05,1.8,4.69-.71,2.19-3.05,3.1-4.75,3.59-1.42.41-3.12.7-4.13.7Z"/>
  <path class="cls-1" d="M168.33,51.76c1.38.05,8.33-1.3,5.37-3.45-1.44-1.05-5.63.05-6.7,1.32-.81.96.25,2.08,1.34,2.12Z"/>
  <path class="cls-1" d="M127.22,228.23c-2.8-.88-3.46,2.47-1.45,4.14,3.18,2.65,4.36-3.23,1.45-4.14Z"/>
  <path class="cls-1" d="M126.23,234.18c-1.84-1.67-4.34-.55-3.06,1.23,1.29,1.8,5.58,1.06,3.06-1.23Z"/>
  <path class="cls-1" d="M121.64,239.85c-.17-.6.08-1.74-.7-2.11-.23-.11-.91-.21-1.06-.09-.38.32-.17,3.58.01,4.16.21.65,2.49,1.16,2.34-.82-.04-.52-.48-.76-.59-1.14Z"/>
  <path class="cls-1" d="M353.91,89.19c-1.93-1.01-1.73,4.41.64,3.79,0-.83.16-3.36-.64-3.79Z"/>
  <g>
    <path class="cls-2" d="M258.97,179.96c-.12-.08-.25-.16-.37-.24-4.09-2.56-8.36-3.52-12.49-4.44-1.01-.22-2.05-.46-3.06-.71-1.31-.32-2.57-.73-3.91-1.16-3.05-.98-6.21-1.99-9.84-1.99-.69,0-1.38.04-2.06.11-.97.11-1.73.34-2.27.51-.07.02-.16.05-.24.07-.08-.06-.19-.16-.32-.29-1.07-1.03-1.72-2.3-2.47-3.76-.34-.66-.69-1.35-1.1-2.06-1.42-2.43-3.54-3.72-6.15-3.72-1.44,0-2.8.39-4,.73-.88.25-1.78.51-2.4.51-.04,0-.08,0-.13,0-.46-.03-1.01-.54-1.86-1.37-1.38-1.35-3.28-3.19-6.43-3.19-.58,0-1.17.07-1.77.19-1.13.24-2.07.83-2.9,1.35-.31.2-.76.47-1.03.59-.38-.1-1.02-.32-1.36-.46-.51-.22-3.02-1.54-4-2.12-.34-.72-.81-2.5-1.1-3.6-.51-1.93-.99-3.75-1.7-5.09-1.78-3.36-3.44-4.24-5.77-5.21-.5-.21-1.01-.42-1.59-.7-1.38-.67-2.22-4.41-1.9-8.5.06-.73.21-1.52.37-2.36.52-2.73,1.16-6.12-1.12-9.47-.53-.79-1.24-1.36-1.86-1.86-.13-.11-.31-.25-.47-.39.06-.04.11-.08.16-.11.87-.6,2.17-1.5,2.69-3.16.37-1.2.35-2.28.33-3.15-.02-.86-.03-1.43.27-2.12.56-1.32,1.15-1.63,2.34-2.23,1.1-.56,2.46-1.26,3.65-2.77.54-.69.9-1.32,1.22-1.87.44-.76.71-1.22,1.3-1.69,1.05-.82,1.87-1,3.24-1.3.78-.17,1.66-.36,2.65-.7.91-.31,1.66-.75,2.32-1.13.55-.32,1.02-.59,1.44-.71.37-.1.87-.17,1.4-.24.77-.1,1.64-.21,2.53-.49.9-.28,1.67-.77,2.29-1.17.04-.03.08-.05.13-.08.25.2.57.43.95.64.41.23.83.42,1.2.58.3.14.71.32.87.43.17.12.4.37.65.64.75.83,2,2.22,4.17,2.22.89,0,1.78-.24,2.71-.73.67-.35,1.33-.92,2.02-1.52.13-.11.3-.26.45-.38.48.02,1.12.07,1.74.13.92.08,1.87.16,2.63.16.19,0,.36,0,.52-.01,5.35-.32,9.78-2.79,12.65-4.63,1.33-.85,2.28-1.83,3.11-2.69.98-1.01,1.69-1.74,2.84-2.18.27-.1.67-.2,1.1-.31,1.11-.28,2.48-.62,3.67-1.54.74-.57,1.33-1.34,1.85-2.02.23-.3.52-.68.67-.82,1.85-1.81,2.96-1.81,3.32-1.81,1.79,0,4.03,1.94,6.19,3.81,1.9,1.64,3.87,3.34,6.16,4.44,2.42,1.16,4.36,1.31,6.08,1.45.82.06,1.6.12,2.44.29q1.09.22,1.5,2.08c.18.82.4,1.85.83,2.91,2,5.04,5.94,6.16,8.82,6.98,1.51.43,2.82.8,3.87,1.61.86.66,1.89,2.28,2.79,3.71.7,1.11,1.43,2.26,2.22,3.23l.19.23c.42.52.92,1.14,1.52,1.7.07,3.64.13,7.28.2,10.93.05,3.06.11,6.13.17,9.19-1.5.94-3.26,2.47-4.1,4.74-1.01,2.72-.01,4.86.58,6.14.02.05.05.11.07.16-.22.16-.48.34-.73.5-.98-1.07-2.22-1.33-3.21-1.33-.35,0-.71.03-1.1.1-1.81.31-2.68,1.4-3.03,2.02-1.05,1.84-.3,3.79.19,5.08.05.13.11.3.17.45-.05.05-.1.09-.14.14-.81.8-2.31,2.28-2.25,4.72.04,1.86,1.07,3.45,1.89,4.72.04.07.09.15.14.22-.68.31-1.5.59-1.93.64-.11-.01-.35-.07-.53-.11-.53-.12-1.25-.29-2.14-.29-.31,0-.62.02-.92.06-3.66.48-7.29,5.1-8.06,6.31-.7,1.11-1.11,2.16-1.43,3-.45,1.19-.68,1.74-1.37,2.29-.36.29-.88.57-1.44.86-.6.32-1.27.67-1.92,1.14-.55.39-1.05.83-1.5,1.27Z"/>
    <path class="cls-3" d="M325.36,143.5c-1.49,0-3.32-.81-5.26-1.67-2.28-1.01-4.87-2.16-7.63-2.23-.03,0-.07,0-.1,0-.12,0-.24,0-.36.01-.25-.56-.53-1.23-.75-1.75-1.32-3.15-2.23-5.15-3.63-6.26-.97-.77-2.26-1.18-3.72-1.18-2.03,0-4.45.81-6.15,1.98-.03-1.52-.05-3.04-.08-4.56-.07-4.16-.15-8.31-.23-12.47-.11-5.56-.23-11.22-.35-16.69-.27-12.5-.55-25.4-.69-38.16,1.32.44,2.76,1.06,4.04,1.6,1.22.52,2.37,1.02,3.43,1.37,1.67.57,3.24.9,4.76,1.22.99.21,1.93.41,2.86.67.43.12,1.6.6,2.44.97,0,.02,0,.03,0,.05-.19,1.36-.58,4.19,1.84,6.17.98.8,2.09,1.23,3.21,1.23,1.32,0,2.53-.61,3.36-1.67.52.23,1.14.39,1.86.39.08,0,.17,0,.25,0,.8-.04,1.41-.3,1.76-.47.18-.02.38-.05.58-.07,1.3-.15,3.09-.36,4.72-1.68l.59-.48.19-.46c.83.11,1.65.23,2.45.36,4.12.69,9.44,5.37,13.32,8.79.54.47,1.05.93,1.54,1.35,1.62,1.4,3.25,2.86,4.83,4.28-.3.04-.57.11-.81.18-.73-.74-1.61-1.12-2.64-1.12-.39,0-.79.06-1.19.18-.82-.7-1.98-1.24-3.67-1.24-.3,0-.63.02-.96.05-3.39.35-5.08,3.11-4.95,5.52.13,2.44,1.98,4.28,4.31,4.28.44,0,.89-.07,1.33-.2.3-.09.57-.21.81-.35.18.24.36.45.53.64-.6.59-1.21,1.5-1.25,2.86-.11,3.94,4.01,6.44,6.9,6.66.12,0,.25.01.37.01.18,0,.36,0,.52-.03.38.71.99,1.52,2.04,2,.65.3,1.3.38,1.84.4,0,.02.01.03.02.05.23.69.8,1.64,2.17,2.26,1.44.65,5.3.78,6,.78.99,0,1.78-.08,2.49-.44.43.85,1.06,1.72,2.01,2.57.81.71,1.82,1.09,2.92,1.09,1.59,0,3.03-.78,4.3-1.67,0,.64.17,1.18.39,1.59.35.67,1.2,1.76,3.1,1.88.94,1.08,2.19,1.22,2.79,1.22.07,0,.15,0,.22,0,1.83-.09,2.89-1.27,3.47-2.04,2.42-.02,4.14-1.53,4.49-3.95.04-.28.05-.59.02-.91,1.55,1.1,2.88,2.45,3.91,4.26.25.45.48.95.71,1.48.5,1.11,1.06,2.38,2.08,3.61,1,1.2,2.12,1.98,3.12,2.67.53.37,1.03.71,1.42,1.07-.03,0-.06,0-.09,0-.34,0-.59-.04-.75-.11-1.3-.59-2.03-.76-2.91-.93-.33-.06-.64-.12-1.09-.25-.09-.03-.35-.18-.54-.29-.71-.41-1.77-1.04-3.22-1.04-.15,0-.3,0-.44.02-1.46.13-2.55.82-3.23,2.04-.05.03-.1.05-.15.08-.68-.69-1.65-1.39-3-1.39-.78,0-2.25.26-3.4,2.01-.59.9-.97,2-1.34,3.06-.11.33-.24.7-.37,1.03-.7.14-1.63.43-2.57,1.26-.42.37-.74.76-.98,1.16-.26-.08-.53-.14-.83-.16-.11,0-.21-.01-.33-.01-.55,0-1.64.14-2.08.2-1.49.2-2.66.36-3.49,1.55l-.33.48-.13.56s0,0,0,0c-.86.24-1.46.71-1.86,1.11-.12,0-.24,0-.36-.01-.35-.01-.69-.03-.96-.03-.44,0-1.6,0-2.53.97-.77.81-.86,1.73-.87,2.23-.1.02-.21.04-.29.05-.27-.05-.87-.2-1.25-.3-1.16-.3-1.8-.45-2.42-.45-.44,0-.86.08-1.24.24-.39.16-1.77.82-2.3,2.32-.08-.01-.16-.02-.24-.03-.17-.02-.34-.03-.52-.03-1.01,0-1.88.29-2.51.5-.05.02-.11.04-.17.06-.21-.13-.45-.26-.73-.37-.31-.12-.6-.19-.87-.24-.6-.94-1.68-2.16-3.5-2.16-.81,0-2.02.27-3.14,1.54-.37.42-1.18,1.54-1.03,3.02-.65-.81-1.94-2.31-4.28-2.31-.34,0-.69.03-1.05.1-2.12.39-3.39,1.62-3.79,3.67-.87-1.27-2.25-1.41-2.8-1.41-.1,0-.2,0-.3.01l-.67.05-.59.33c-1.79,1.01-2.66,2.6-3.3,3.75-.34.61-.65,1.18-.95,1.41-.66.5-1.3.72-2.06.72Z"/>
    <path class="cls-4" d="M291.14,106.36c-.82-1.17-1.71-2.25-2.77-3.07-1.98-1.52-4.07-2.11-5.92-2.64-2.72-.77-3.96-1.21-4.81-3.35-.24-.61-.39-1.27-.54-1.97-.47-2.16-1.27-5.78-6.28-6.78-1.21-.24-2.25-.32-3.17-.39-1.46-.11-2.51-.19-3.9-.86-1.56-.75-3.14-2.11-4.81-3.56-2.87-2.48-6.13-5.3-10.19-5.3-2.63,0-5.19,1.2-7.6,3.55-.47.46-.87.98-1.25,1.48-.23.3-.57.75-.73.9-.21.14-.93.32-1.4.44-.55.14-1.18.3-1.8.53-2.41.92-3.87,2.42-5.04,3.63-.69.71-1.29,1.33-2.02,1.8-3.69,2.36-6.68,3.49-9.71,3.67-.05,0-.1,0-.16,0-.05,0-.1,0-.15,0,.61-2.15.9-5.18,0-7.17-.59-1.33-1.7-2.24-3.04-2.5-.35-.07-.71-.1-1.08-.1-.89,0-1.62.2-2.16.35-.07.02-.16.04-.23.06,0,0,0,0,0,0-.41-.32-.94-.72-1.6-1.01.74-1.78,1.3-3.86.84-5.88-.39-1.7-1.57-2.56-2.2-3.02-.03-.02-.07-.05-.1-.07-.02-.05-.04-.09-.05-.13-.2-.49-.48-1.16-1.04-1.77-.05-.05-.09-.1-.14-.15,1.93-.8,3.86-1.9,5.74-2.97,2.78-1.58,5.66-3.22,7.79-3.43.08,0,.17-.01.29-.01.19,0,.42.01.66.02.28.01.6.03.93.03s.65-.01.94-.05c.99-.1,6.55-1.03,8.5-2.13.82-.46,3.15-2.92,3.38-3.24.98-1.38,1.09-2.59.95-3.46h.02c.43,0,1.55.37,2.29.62.94.31,1.91.63,2.88.79.74.12,1.39.17,1.95.21,1.11.08,1.54.12,2.17.51.05.04.13.12.19.18.48.47,1.28,1.26,2.59,1.6.65.17,1.23.19,1.7.19h.28c.12,0,.17,0,.19,0,.73.15.95.35,1.64,1.01.5.47,1.11,1.05,1.99,1.62,2.64,1.7,5.07,1.93,7.11,1.93.37,0,.77,0,1.23-.03,12.56-.47,20.68-1.69,24.81-3.72.72-.35,1.37-.76,1.96-1.15.14,12.47.42,25.04.68,37.24.05,2.48.11,5.01.16,7.54Z"/>
    <path class="cls-5" d="M162.33,217c-.07-.12-.15-.24-.22-.35-.48-.79-1.14-1.88-2.35-2.7-.89-.61-1.78-.96-2.5-1.25-.33-.13-.8-.32-.99-.44-.01-.04-.03-.12-.04-.24.61.2,1.37.42,2.24.42,1.68,0,3.13-.82,4.08-2.31,1.07-1.68.93-3.28.54-4.52.57.22,1.2.37,1.92.37h0c.91,0,1.79-.25,2.59-.75,2.98-1.84,3.46-6.49,3.73-11.93,2.61-.49,3.37-2.43,3.59-3.64.46-2.55-.65-4.33-1.32-5.4-.34-.54-.48-.79-.49-.93.35-1.38,3.3-6.88,5.76-10.98l.25-.42c.64-1.08,1.2-2.02,1.94-2.63.68-.56,1.5-1.11,2.37-1.69,1.26-.84,2.63-1.75,3.86-2.91,1.49.8,3.01,1.54,3.13,1.59.02,0,2.26.95,3.62.98.04,0,.08,0,.12,0,1.76,0,3.21-.9,4.26-1.56.31-.19.78-.49.97-.56.17-.03.32-.05.46-.05.61,0,1.1.42,2.16,1.46,1.26,1.23,2.98,2.9,5.72,3.09.17.01.35.02.53.02,1.47,0,2.85-.39,4.07-.74.86-.24,1.74-.49,2.33-.49.28,0,.46,0,.86.68.33.57.63,1.15.95,1.77.87,1.71,1.87,3.64,3.67,5.38.92.89,2.38,2.06,4.4,2.06.9,0,1.64-.23,2.23-.42.41-.13.73-.23,1.11-.27.46-.05.93-.08,1.4-.08,2.68,0,5.25.82,7.98,1.69,1.38.44,2.8.9,4.3,1.27,1.08.27,2.16.51,3.2.74,2.86.64,5.6,1.25,8.15,2.37-.61.36-1.15.75-1.66,1.11-.73.52-1.35.96-2.01,1.24-.29.12-.57.2-.9.29-1.13.32-2.68.75-4.17,2.84-.65.91-1.25,2.56-1.51,4.12-.52-.8-1.19-1.52-2.17-1.92-.83-.35-1.62-.39-2.14-.39-.32,0-.62.02-.88.03-.15,0-.3.02-.42.02-1.16-.72-4.08-3.12-5.38-4.4.42-.58.89-1.46.78-2.64-.14-1.61-1.4-3.49-4.49-3.49-1.06,0-2.11.2-2.7.38-2.84.85-4.27,3.16-5.31,4.84-.28.45-.68,1.1-.92,1.36,0,0,0,0,0,0-.35.12-.88.29-1.45.66-1.75,1.15-2.64,2.84-3.36,4.21-.28.53-.54,1.03-.79,1.36-.22.3-.68.7-1.13,1.09-1.28,1.11-3.04,2.64-3.4,5.19-.04.31-.06.6-.06.85-.26.05-.58.08-.95.08-.09,0-.18,0-.26,0-.32-.02-.97-.19-1.49-.34-.92-.25-1.95-.54-3-.54-.13,0-.25,0-.37.01-1.03.07-1.82.46-2.35.73-.19-.12-.41-.28-.58-.4-.92-.65-2.19-1.54-3.82-1.65-.13,0-.26-.01-.39-.01-.93,0-1.86.21-2.75.41-.52.12-1.16.26-1.45.27-.09,0-.17,0-.26,0-.42,0-.86-.02-1.32-.04-.51-.02-1.04-.04-1.6-.04-.74,0-1.41.04-2.06.12-2.55.32-6.41.79-8.25,3.71-.39.62-.77,1.49-.87,2.61-.22.09-.43.18-.65.27-.73.3-1.41.59-2.04.77-.18.05-.78.15-1.17.22-1.75.3-2.7.49-3.51,1.1-1.69,1.27-1.7,3.26-1.67,4.31-.34.24-.81.54-1.14.74-.72.45-1.41.87-1.96,1.38-.61.56-1.11,1.17-1.54,1.72-.34.42-.77.96-1.07,1.18Z"/>
    <path class="cls-5" d="M85.5,142.28c.5-.68.93-1.6.79-2.77-.1-.87-.56-2.11-2.17-3.06-.41-.24-.83-.4-1.21-.51.19-1.33.55-3.8-1.43-5.55-.87-.76-1.79-.98-2.29-1.1,0,0,0,0,0,0-.08-.07-.17-.15-.25-.22-.76-.69-2.03-1.85-3.87-1.85-.83,0-1.62.24-2.34.7-.13-.38-.24-.77-.33-1.06-.43-1.47-.91-3.14-2.38-4.2-.9-.65-1.96-.96-3.27-.96-.57,0-1.11.06-1.59.11-.34.04-.66.07-.88.07-.01,0-.03-.01-.04-.02-.25-.1-.63-.25-1.12-.32.08-.15.17-.28.24-.39.12-.15.51-.52.77-.77,1.46-1.41,2.83-2.75,2.67-4.64-.12-1.44-1-2.46-1.64-3.2-.08-.1-.2-.23-.28-.33,0-.17.01-.4.02-.58.04-.82.1-1.94-.3-3.15-.54-1.64-1.77-2.58-2.58-3.2-.15-.11-.36-.27-.48-.38-.04-.17-.09-.43-.13-.62-.14-.73-.31-1.65-.8-2.53-.23-.41-.5-.75-.8-1.04,4.98-3.38,9.76-6.72,14.53-10.67,1.16-.02,2.22-.23,3.15-.42.76-.15,1.47-.3,2.07-.3.06,0,.11,0,.17,0,.87.04,3.8.82,4.58,1.21.24.24.66,1.08.93,1.64.47.95.99,2.02,1.79,2.97,1.26,1.51,2.54,2.31,3.57,2.96.54.34,1,.63,1.43.99.24.2.25,1.4.27,2.2.02,1.79.06,4.25,1.77,6.28.18.22.37.4.55.55-.39.61-.84,1.41-1,2.41-.18,1.17-.62,5.19,1.44,7.96.79,1.06,1.83,1.79,3.04,2.13-.05.15-.11.3-.16.44-.79,2.17-1.99,5.46.28,8.86.34.51.73.89,1.03,1.18-.05.42-.09.96-.03,1.54.05.55.18,1.05.32,1.5-2.51,2.33-2.86,3.17-2.98,3.47-.61,1.48-.39,2.75-.1,3.63-.03.03-.06.05-.1.08-1.32-.45-2.31-.69-3.15-.69-.14,0-.28,0-.41.02-1.35.13-2.32.79-2.96,1.23-.05.03-.1.07-.15.1-.02,0-.04,0-.07,0-.2,0-.44-.01-.7-.03-.32-.02-.69-.04-1.08-.04-.87,0-1.62.11-2.33.33Z"/>
    <path class="cls-2" d="M144.65,90.41c-.71,0-1.49-.18-1.95-1.51-.02-.08-.05-.28-.08-.42-.2-1.11-.66-3.69-3.18-4.44-.44-.13-.9-.19-1.37-.19-1.37,0-2.49.54-3.4.97-.26.12-.65.31-.8.35-.26.07-.87.14-1.72.14-1.98,0-3.43-.38-3.77-.58-.36-.26-.75-2.11-.92-2.91-.32-1.53-.68-3.26-1.62-4.72-1.33-2.08-3.38-3.19-5.03-4.08-.03-.02-.07-.04-.1-.05-.05-1.82-1.2-3.1-1.89-3.75.43-.73,1.02-1.64,1.24-1.92.17-.22.43-.44.73-.7.45-.39,1.05-.92,1.56-1.66.2.16.42.33.67.49.82.54,1.62.8,2.43.8.16,0,.35-.01.54-.04,1.44,2.53,6.37,6.15,8.98,6.51.28.04.56.06.84.06,1.64,0,3.02-.65,4.02-1.12.36-.17.7-.33.96-.41l.46-.15c1.84-.61,4.12-1.37,5.79-1.37.09,0,.17,0,.25,0,1.27.07,2.77.79,4.35,1.56,1.53.74,3.26,1.58,5.16,1.99,1.83.39,3.56.5,5.24.61,1.11.07,2.17.14,3.17.29.58.08,1.22.26,1.89.44,1.21.33,2.57.7,4.1.7.69,0,1.37-.08,2.02-.23.96-.23,1.85-.54,2.71-.84.96-.34,1.87-.65,2.8-.83,2.58-.49,5.03-.56,7.09-.56.75,0,1.53,0,2.28.02.77,0,1.58.02,2.38.02,1.63,0,2.98-.04,4.26-.14.87-.06,1.58-.21,2.21-.33.55-.11.99-.2,1.37-.2.28,0,.54.05.86.15.15.05.45.23.72.4.16.1.34.21.53.32.08.9.35,1.94,1.1,2.9.69.87,1.53,1.28,2.12,1.53.17.39.39.88.75,1.36.41.54.88.91,1.23,1.18-.04.35-.17.78-.34,1.23-.72-.48-1.49-.89-2.37-1.01-.26-.04-.53-.06-.8-.06-1.03,0-1.91.28-2.56.49-.25.08-.59.19-.71.2-.54,0-1.43-.26-2.28-.5-1.29-.37-2.76-.79-4.33-.79h-.11c-2.98.04-5.24,1.45-7.05,2.58-1.11.69-2.07,1.29-3.01,1.52-.62.15-1.35.23-2.21.23-1.12,0-2.31-.12-3.58-.25-1.37-.14-2.78-.28-4.21-.28-2.49,0-4.49.43-6.28,1.37-1.02.53-1.65,1.05-2.11,1.43-.48.4-.54.45-1.55.52-.46.03-.92.05-1.5.05-.27,0-.52,0-.78,0-.27,0-.53,0-.8,0-1.47,0-3.12.1-5.2.81-2.63.9-3.15,1.06-5.89,1.62-.85.17-1.53.57-2.08.89-.16.09-.4.23-.52.28-.26.05-.51.08-.74.08Z"/>
    <path class="cls-2" d="M163.43,251.05c-.19-.05-.42-.12-.6-.18-.65-.2-1.46-.45-2.4-.53-.27-.02-.56-.03-.85-.03-1.05,0-2.03.13-2.98.26-.79.11-1.54.2-2.19.2-.06,0-.12,0-.17,0-.25,0-.71-.09-1.12-.17-.55-.1-1.16-.22-1.8-.26-.15,0-.32-.01-.53-.01h0s0-.03,0-.05c-.38-1.8-1.81-2.4-2.93-2.62.03-.07.05-.15.08-.23.33-1.06.14-2.17-.53-3.14-1-1.45-2.61-1.62-4.83-1.87-.49-.05-1.25-.14-1.83-.23-.19-.52-.41-1.19-.58-1.7-.78-2.34-1.3-3.83-1.92-4.81-.37-.58-.83-1.06-1.31-1.47.36-.19.72-.42,1.05-.72.71-.65,1.06-1.44,1.29-1.98.67-.21,1.64-.48,2.07-.58.07,0,.15,0,.23.01.2.01.45.03.73.03.31,0,.6-.02.88-.07,1.9-.3,4.56-2.49,5.35-3.77,1.92-3.06.03-5.24-.59-5.96-.07-.09-.17-.2-.22-.27-.04-.19-.04-.64-.05-.92-.01-.81-.02-1.72-.45-2.65-.5-1.09-1.46-1.72-2.24-2.22-.11-.07-.27-.17-.36-.24-.26-.32-.38-.85-.54-1.72-.13-.68-.28-1.45-.58-2.24.75.22,2.17.57,3.02.6.09,0,.18,0,.27,0,.72,0,1.41-.08,2.02-.16.48-.06.94-.11,1.34-.12-.03.39-.04.72-.02.96.25,4.3,3.26,5.5,4.88,6.15.53.21.98.39,1.32.62.12.09.39.53.56.82.67,1.1,2.06,3.4,5.21,3.4.16,0,.33,0,.49-.02,2.91-.22,4.52-2.22,5.58-3.55.33-.4.63-.79.89-1.02.16-.14.7-.48,1.07-.7,1.63-1.01,3.47-2.15,3.92-4.18.09-.39.12-.77.12-1.12.03,0,.06-.01.09-.02.73-.13,1.35-.23,1.86-.38.94-.28,1.82-.64,2.66-.99.14-.06.29-.12.43-.18.09.1.19.19.27.28.07.07.15.15.22.23-.33.56-.78,1.32-.97,2.33-.6,3.16.94,5.81,2.18,7.93.39.67.99,1.71,1.19,2.32-.59.61-1.38,1.69-1.25,3.22.11,1.29.87,2.24,1.53,3.09.2.25.53.66.63.85.19.61.14,1.47-.01,1.98-.61-.76-1.72-2.14-3.87-2.39-.19-.02-.4-.03-.6-.03-2.83,0-8.38,2.74-9.62,6-.65,1.72-.62,3.41-.6,4.77.01.64.02,1.25-.04,1.76-.05.39-.15.84-.27,1.36-.11.5-.24,1.07-.34,1.68-.04.05-.08.1-.12.14-.32.38-.81.96-1.05,1.8-.06.22-.1.43-.13.62-.15.09-.3.19-.43.27-.92.57-1.81,1.12-2.5,1.77ZM141.6,205.43"/>
    <path class="cls-4" d="M67.62,185.46c-2.28,0-3.25-.76-5.6-2.59-.39-.31-.81-.63-1.25-.97-.28-.21-.61-.42-.98-.66-.06-.04-.14-.09-.23-.14,1.01-2.67-.82-4.24-1.47-4.69-.77-.53-1.68-.81-2.64-.81-1.07,0-2,.34-2.74.61-.12.04-.26.09-.4.14-.34-.44-.77-1.07-1.04-1.46-.41-.6-.77-1.12-1.11-1.52-1.65-1.93-3.4-2.7-4.95-3.38-.05-.02-.11-.05-.16-.07-.02-.43-.09-.81-.16-1.14.17-.09.34-.2.52-.33.58-.42.97-.93,1.27-1.4.41-.02.82-.09,1.2-.21,1.17-.36,1.99-1.14,2.6-1.74.54.21,1.25.46,2.13.46h0c.89,0,1.75-.27,2.48-.79,1.31-.93,1.62-2.2,1.64-3.17.88-.27,1.99-.79,2.9-1.99,1.1-1.44,2.18-5.05,2.05-6.9-.13-2.02-1.31-3.21-1.92-3.79.02-.16.04-.34.06-.5.13-.97.33-2.43-.29-3.99-.25-.63-.62-1.15-1.03-1.59.96-.16,2.03-.48,3-1.26,2.19-1.77,2.49-4.05.88-6.78-.1-.17-.24-.41-.3-.54,0-.15.06-.27.42-.81.45-.67,1.14-1.68,1.3-3.11.08-.73,0-1.4-.11-2,.08-.1.16-.21.23-.33.11,0,.22,0,.33,0,.56,0,1.1-.06,1.57-.11.17-.02.33-.04.48-.05.08.24.15.51.22.72.53,1.81,1.32,4.56,3.98,5.95.83.43,1.59.64,2.35.64,1.02,0,1.88-.35,2.59-1.03.26.21.54.41.87.59.2.11.39.19.57.26,0,.03,0,.06-.01.09-.16,1.09-.38,2.58.3,4.05.4.87,1.02,1.44,1.65,1.83-1.02,2.61.26,5.15,1.39,6.95-.25.73-.46,1.5-.66,2.25-.24.89-.63,2.38-.95,2.82-.32.18-1.49.23-2.19.27-2.11.1-5.3.26-7.09,3.12-1.01,1.61-.96,3.03-.75,3.94.54,2.27,2.5,3.45,4.07,4.39.39.23.92.55,1.25.8-.03.19-.07.39-.12.62-.25,1.21-.6,2.86.51,5.39,1.02,2.32,2.85,3.22,3.84,3.71.03.02.07.03.11.05.03.37.02.93.01,1.3,0,.42-.02.85,0,1.28.02.52.06.97.1,1.37.03.33.07.78.06.95-.04.06-.17.23-.51.52-1.32,1.14-7.34,4.41-8.83,4.68-.52.06-1,.09-1.44.09Z"/>
    <path class="cls-4" d="M105.32,129.58c-.02-.08-.03-.15-.06-.23-.36-1.3-1.22-2.11-1.73-2.6-.09-.08-.2-.19-.25-.25-.45-.7-.3-1.39.41-3.32.57-1.56,1.22-3.33.85-5.34-.35-1.92-1.86-3.16-3.86-3.16-.27,0-.52.02-.72.04-.02,0-.05,0-.07,0-.24-.48-.43-1.76-.25-3.09.07-.12.19-.31.27-.44.63-.98,2.29-3.57.26-6.33-.49-.66-1.08-1.06-1.44-1.29-.02-.01-.04-.03-.06-.04-.24-.43-.25-1.43-.26-2.32-.03-2.01-.06-4.77-2.42-6.78-.77-.65-1.5-1.11-2.15-1.52-.86-.54-1.48-.92-2.11-1.69-.32-.39-.67-1.08-.99-1.75-.72-1.46-1.61-3.27-3.43-4.27-1.12-.62-3.39-1.29-5.23-1.68.44-.39.87-.77,1.28-1.14.67-.61,1.36-1.44,2.1-2.32.71-.84,2.12-2.52,2.87-3,.33.16.9.57,1.26.83,1.13.82,2.53,1.85,4.34,1.85.47,0,.94-.07,1.38-.21,2.62-.82,3.4-3.18,3.81-4.44.09-.26.22-.66.29-.78.32-.53,1.47-.89,2.58-1.24.82-.26,1.67-.52,2.5-.92,1.64-.79,3.25-2.3,4.96-3.89,1.16-1.09,3.32-3.1,4.18-3.32h.63c-.74,1.14-1.63,2.66-1.83,3.64-.31,1.56.2,2.76.82,3.62-.55.32-1.04.7-1.39,1.17-.93,1.23-1.3,2.5-1.1,3.77.31,1.9,1.78,2.9,2.57,3.44.13.09.31.22.4.28.09.11.2.28.3.47-2.2,1.59-3.74,6.63-3.32,8.64.03.13.06.25.09.36-.02.03-.05.06-.07.09-.42.54-.88,1.46-.7,2.81.05.38.15.71.27,1-.39.34-.78.78-1.05,1.37-.24.53-.34,1.03-.37,1.45-.88.26-2.19.73-3.11,2.01-.85,1.18-.93,2.36-.97,2.99,0,.02,0,.04,0,.07-.03.04-.07.08-.1.11-.56.65-1.73,2.01-1.41,4.05.13.85.57,1.94,1.84,2.67.18.78.55,1.69,1.5,2.31.85.56,1.75.56,2.28.56.12,0,.24,0,.37,0,.12,0,.24,0,.35,0,.04,0,.08,0,.11,0,.16.13.36.32.51.45.64.59,1.45,1.32,2.47,1.8.96.44,1.93.61,2.79.75.15.02.33.05.5.09-.02.2-.04.41-.07.62-.12.96-.28,2.31.12,3.7-.34.54-.58,1.11-.67,1.67-.22,1.4.17,2.48.61,3.24-1.25.95-2.88,1.63-4.6,2.34-1.01.42-2.05.85-3.07,1.36-1.01.51-2.02,1.09-3.02,1.74Z"/>
    <path class="cls-3" d="M48.99,149.07c-.07-.21-.15-.42-.21-.62-.24-.71-.53-1.59-.95-2.5-.96-2.07-1.65-2.86-2.68-3.91-.29-.29-.58-.6-.94-1.01-.27-.31-.58-.82-.9-1.35-.93-1.54-2.22-3.66-4.76-4.4-.76-.22-1.56-.34-2.36-.34-1.59,0-2.97.44-4.19.85-.58-.82-1.19-1.55-1.77-2.23-1.67-1.97-2.47-2.99-2.25-4.69.08-.27.81-.96,1.24-1.38,1.14-1.09,2.56-2.46,2.96-4.56.33-1.7-.22-2.93-.67-3.69,1.1-1.14,4.17-2.21,6.68-3.08,3.45-1.2,7.02-2.44,9.37-4.7,1-.97,1.72-2.09,2.34-3.08.45-.71.88-1.39,1.29-1.8.77-.78,1.85-1.44,3-2.14.23.11.45.22.65.31.14.07.33.15.48.23.03.14.06.31.09.44.13.72.3,1.62.78,2.5.59,1.08,1.49,1.76,2.14,2.25.15.11.35.27.49.38.01.21,0,.54-.02.78-.03.68-.08,1.53.13,2.45.19.85.62,1.54,1.06,2.1-.04.04-.08.07-.11.11-.58.56-1.08,1.04-1.44,1.54-.04.05-3.78,5.55-2.23,9.41.28.7.71,1.29,1.25,1.74.02.06.04.12.05.18.07.22.16.54.2.73-.07.11-.18.28-.27.41-.6.89-1.62,2.39-1.45,4.75.06.82.3,1.53.58,2.12-1.37.1-3.58.31-5.1,2.24-1.09,1.38-1.17,2.68-1.04,3.53.29,1.99,1.86,3.09,2.89,3.81.16.11.37.26.53.38,0,.21-.05.52-.08.75,0,.05-.01.09-.02.14l-3.51.74-.37.19c-.36.19-.65.32-.88.41Z"/>
    <path class="cls-3" d="M73.14,193.52c-.07-.23-.15-.45-.23-.67-.19-.54-.4-1.16-.43-1.47-.02-.17.01-.46.05-.77,3.44-1.41,8.04-4.16,9.35-5.29,2.93-2.53,2.72-4.83,2.55-6.67-.03-.34-.06-.69-.08-1.06-.01-.25,0-.57,0-.91.03-1.31.06-2.94-.71-4.48-.73-1.46-1.99-2.08-2.82-2.49-.75-.37-.84-.45-.94-.67-.32-.74-.29-.88-.13-1.68.12-.59.29-1.4.28-2.42-.03-2.96-2.56-4.49-4.24-5.5-.02-.01-.05-.03-.08-.05.35-.03.7-.05.98-.06,1.84-.09,4.13-.2,5.94-1.79,1.64-1.44,2.24-3.67,2.81-5.83.24-.91.54-2.03.82-2.52.22-.29.85-.89,1.19-1.12.07-.01.19-.02.36-.02.21,0,.46.01.73.03.32.02.68.04,1.05.04h0c.51,0,.97-.04,1.41-.12.98-.18,1.71-.67,2.24-1.04.06-.04.12-.08.19-.13.73.19,2.04.68,2.52.86.04.02.09.03.13.05.32.25.87.64,1.67.88,1.01.3,2,.41,2.88.5,1.23.13,2.04.24,2.54.62.53.7,2.25,3.23,2.66,3.91.04.1.07.24.12.41.14.56.36,1.4.97,2.33.55.83,1.28,1.45,1.97,1.95-1.89.51-3.91,1.39-4.93,3.53-.37.77-.48,1.51-.57,2.04-.02.1-.04.23-.05.32-.36.66-1.58,2.22-2.33,2.97h-.02c-.43,0-1.75,0-2.99.94-1.12.85-1.5,1.99-1.67,2.71-.43.2-.97.5-1.47,1-.43.43-.69.86-.86,1.2-.09.01-.18.03-.25.04-.6.09-1.43.21-2.29.62-.43.21-1.16.56-3.1,3.15-1.99,2.66-2.08,3.46-2.13,3.99-.17,1.55.37,2.65,1.06,3.41-.87.24-1.64.76-2.21,1.53-.48.65-1.28,2.1-.44,3.88-.11.06-.22.14-.33.21-.62.43-1.05.93-1.38,1.33-.18-.03-.37-.05-.58-.06-.08,0-.16,0-.23,0-1.38,0-2.29.47-2.87.97-.59-.34-1.41-.72-2.43-.72-.2,0-.4.01-.59.04-1.55.24-2.5,1.22-3.1,2.06Z"/>
    <path class="cls-5" d="M125.66,194.64c-.63-.2-1.35-.39-1.93-.43-.16-.01-.32-.02-.48-.02-.84,0-1.52.18-2.06.43-.06-.09-.13-.18-.19-.27-1.57-2.27-3.19-4.61-5.42-5.27-.49-.15-.98-.22-1.46-.22-1.73,0-2.82.92-3.4,1.42-.1.09-.25.21-.3.24-.96.52-1.74.56-2.89.56h-.7c-.77,0-1.6.02-2.53.15-.75.11-1.34.35-1.79.62-.58-.87-1.23-1.88-1.42-2.21-.1-.22-.29-.83-.41-1.21-.46-1.47-.76-2.44-1.76-3.15-.8-.57-1.73-.86-2.77-.86-.35,0-.68.03-.99.08-.01-.18-.04-.37-.07-.57-.26-1.58-1.2-2.53-2.03-3.11.44-.6.94-1.23,1.28-1.62.09-.02.2-.03.28-.04.93-.13,2.48-.36,3.77-1.67.44-.44.7-.9.87-1.24.57-.26,1.44-.69,2.11-1.62.33-.46.53-.92.66-1.33.23-.02.5-.06.78-.13.85-.21,1.91-.74,3.92-3.2.72-.88,1.98-2.52,2.38-3.67.2-.55.27-1.06.34-1.47.01-.07.02-.16.04-.23.47-.26,1.68-.53,2.36-.67.15-.03.29-.06.44-.1,2.42,2.1,6.52,2.6,9.97,3.02.74.09,1.45.18,2.01.27-.88.41-1.94.87-2.49,1.05-.12-.03-.32-.08-.48-.13-.54-.15-1.29-.36-2.19-.36s-1.83.22-2.69.67c-1.07.56-1.67,1.4-2.05,2.03-2.36.58-3.08,2.04-3.27,3.21-.23,1.45.16,3.32,3.07,4.43-.1.64-.07,1.45.43,2.27.79,1.28,2.09,1.59,3.04,1.82.18.04.46.11.62.16.19.19.52.6.75.88.99,1.23,2.22,2.76,4.21,3.08.38.06.77.09,1.16.09.42,0,.8-.04,1.16-.09.03.08.06.15.09.23.2.49.41,1,.49,1.34.26,1.1.06,3.83-.48,6.83Z"/>
    <path class="cls-2" d="M39.87,164.37c-.3-.43-.65-.86-1.06-1.29-.04-.04-4.08-3.76-6.3-3.83-.04,0-.09,0-.13,0-.7,0-1.31.19-1.75.33-.07.02-.17.05-.24.07-1.48-.09-7.46-1.71-10.02-2.58-.51-.18-.94-.39-1.21-.56.65-.28,1.49-.67,2.15-1.49.49-.61.8-1.25,1.04-1.76.24-.5.39-.79.58-.95.91-.77,1.66-.87,3.27-1.01.72-.07,1.54-.14,2.43-.32,1.26-.25,3.51-1.19,4.39-4.64.39-1.53.44-3.23.47-4.61.09-.03.18-.06.26-.09.95-.32,1.77-.6,2.45-.6.22,0,.42.03.63.09.27.08.96,1.22,1.26,1.71.43.7.91,1.5,1.53,2.21.47.54.85.93,1.16,1.25.69.71.92.95,1.51,2.22.28.6.49,1.25.7,1.87.59,1.76,1.67,5.02,5.33,5.02,1.15,0,2.43-.36,3.99-1.12l3.2-.68c-.14.69-.44,1.67-.68,2.16-.09.02-.2.04-.29.06-.69.14-1.85.39-2.83,1.36-.52.52-.83,1.09-1,1.64-.19-.02-.38-.03-.59-.03-.51,0-1.02.08-1.5.23-1.06.34-1.77,1.05-2.34,1.62-.06.06-.13.13-.2.19-.18-.03-.39-.05-.62-.05-.47,0-.93.09-1.35.26-1.33.54-2,1.68-2.4,2.38-.78.22-1.37.55-1.83.93Z"/>
    <path class="cls-3" d="M132.13,226.54c-.88-.33-2.2-.93-3.16-1.45-.24-.13-.42-.24-.56-.33.05-1.02.03-2.49-1.04-3.64-.67-.72-1.59-1.11-2.58-1.11-.39,0-.79.06-1.18.18-.04-.66-.23-1.42-.71-2.24-.66-1.12-1.64-1.86-2.77-2.11.08-.17.15-.34.21-.52.78-2.18,1.01-4.45,1.23-6.64.18-1.82.36-3.54.83-5.12.06-.2.19-.5.34-.82.27-.6.63-1.39.8-2.32.02-.02.04-.03.06-.05.3.09.68.21,1.03.35-.39,1.22-.82,3.46,1.24,5.36,1.19,1.1,2.51,1.27,3.3,1.36.11.01.25.03.35.05.12.12.31.34.44.5.56.66,1.32,1.56,2.49,2.16,1.08.56,2.09.73,2.91.85.56.64,1.23,1.11,1.78,1.52.2.14.48.35.61.46.14.24.26.85.35,1.35.27,1.38.63,3.27,2.25,4.92.38.38.81.68,1.23.95.01.79.04,1.84.45,2.92-.93-.61-2.12-.93-3.47-.93-.47,0-.96.04-1.46.12-2.82.44-4.07,2.67-4.82,4-.04.07-.08.14-.13.22Z"/>
    <path class="cls-5" d="M216,29.7c-.46.68-2.99-.19-3.71-.14-.41.02-3.86.95-4.49,1.12-3.57,1.01-7.2,3.65-10.64,5.12-1.32.56-3.45.95-4.52,1.52-.7.38-.8.96-1.25,1.34-1.34,1.13-3.59,1.05-2.74-1.23,1.13-3.06,6.36-4.49,9.03-5.87,1.79-.93,3.58-2.47,5.49-3.14s7.76-.65,9.94-.42c.64.07,3.77.4,2.9,1.71Z"/>
    <path class="cls-5" d="M240.6,23.48c.2.32.07,1.58-.28,1.93-.8.79-3.21.7-4.66,2.03-.56.51-3,4.11-4,2.72-.52-.72,1.85-4.04,2.41-4.75.86-1.1,1.89-2.59,3.44-2.61.4,0,2.97.47,3.1.68Z"/>
    <path class="cls-5" d="M166.64,49.64c1.07-1.27,5.26-2.37,6.7-1.32,2.96,2.15-3.98,3.5-5.37,3.45-1.09-.04-2.15-1.16-1.34-2.12Z"/>
    <path class="cls-3" d="M126.15,231.67c-1.23-1.02-.83-3.06.88-2.53s1.06,4.14-.88,2.53Z"/>
    <path class="cls-3" d="M120.3,238.96c.09-.08.5-.01.64.05.47.22.32.91.42,1.28.07.23.33.38.36.69.09,1.2-1.29.9-1.42.5-.11-.35-.24-2.33,0-2.52Z"/>
    <path class="cls-3" d="M354.2,92.98c-2.37.63-2.57-4.79-.64-3.79.81.42.64,2.95.64,3.79Z"/>
    <path class="cls-4" d="M153.7,206.01c-.61-.3-1.3-.63-2.1-.75-.44-.07-.9-.1-1.39-.1-.77,0-1.49.09-2.13.16-.48.06-.94.11-1.29.11-.01,0-.02,0-.04,0-.25-.03-.73-.13-1.2-.26.13-1.37.12-3.02-1.01-4.37-.72-.86-1.77-1.37-2.95-1.44-.1,0-.19,0-.29,0-1.84,0-3.66,1.01-5.11,2.85-.48.61-.95,1.35-1.33,2.17-.1-.11-.19-.22-.27-.32-.5-.59-1.12-1.32-2.03-1.85-.63-.37-1.25-.56-1.77-.67.21-.75.38-1.73.11-2.8.04-.14.09-.29.14-.44.16-.49.35-1.05.47-1.69.5-2.57,1.25-7.31.58-10.19-.19-.81-.5-1.57-.78-2.25-.22-.53-.54-1.34-.55-1.64,0-.45.79-1.32,1.27-1.38.06,0,.19.03.3.05.33.06.78.14,1.32.14.68,0,1.33-.12,1.99-.37.39-.15.98-.37,3.42-2.57,2.54-2.29,2.77-2.84,2.97-3.33.96-2.34-.03-4.32-.57-5.39-.05-.1-.11-.22-.16-.33.18-.13.44-.29.68-.43,1.17-.7,3.13-1.88,3.58-4.53.36-2.1-.32-5.82-1.76-7.64-.74-.93-1.66-1.45-2.33-1.84-.36-.2-.77-.44-.83-.57,0,0,0-.01,0-.02.15-.19.41-.47.6-.67.49-.53,1.1-1.18,1.6-2.02.29-.49.48-.97.66-1.41,0,0,0-.02.01-.03.3.05.64.08.98.08,1.79,0,2.73-.96,3.13-1.53.76-1.07.7-2.28.66-3.34,0-.07,0-.16,0-.24.21-.21.58-.52.84-.74.79-.66,1.69-1.41,2.34-2.47.67-1.09.98-2.13,1.23-2.97.11-.38.21-.72.32-.99.06-.16.13-.32.2-.5.23-.58.62-1.53.87-1.89.12-.14.48-.47.73-.69.83-.75,1.69-1.52,2.13-2.58.33-.78.41-1.54.48-2.15.02-.16.04-.38.06-.5.03-.05.08-.11.11-.16.36-.51.96-1.36,1.17-2.77.12-.78.09-1.48.07-2.03,0-.05,0-.1,0-.16.16-.04.34-.07.49-.1.59-.12,1.33-.26,2.08-.57.59-.24,1.03-.56,1.32-.76.03-.02.06-.05.09-.07.08-.02.19-.04.35-.04.6,0,1.44.26,2.33.53.8.25,1.68.52,2.62.68.66,1.01,1.56,1.74,2.21,2.26.22.18.56.46.67.58.79,1.19.58,2.56.14,4.86-.18.97-.37,1.97-.46,3.03-.21,2.69-.44,11.67,5.33,14.48.75.36,1.4.63,1.92.85,1.58.66,1.82.76,2.7,2.42.38.72.83,2.42,1.19,3.79.41,1.56.76,2.84,1.16,3.89-.82.75-1.84,1.43-2.9,2.13-.96.64-1.96,1.3-2.89,2.07-1.56,1.29-2.48,2.85-3.3,4.22l-.24.4c-1.47,2.46-6.3,10.69-6.59,13.44-.24,2.26.73,3.82,1.38,4.85-1.83.48-2.61,1.74-2.94,2.82l-.09.29-.03.3c-.05.54-.09,1.23-.13,2.02-.06,1.28-.23,4.73-.72,6.47-.87-.6-2.06-1.39-3.62-1.39-1.05,0-2.57.37-3.87,2.12-1.59,2.15-1.15,4.2-.57,5.59-.29-.05-.59-.08-.91-.08-.07,0-.14,0-.22,0-.32.01-.94.14-1.61.38Z"/>
    <path class="cls-3" d="M152.56,126c-1.67-2.49-4.23-2.78-5.8-2.97-.41-.05-.8-.09-1.13-.16-.1-.02-.31-.11-.51-.19-.6-.25-1.51-.62-2.67-.62-.26,0-.53.02-.79.06-.83.12-1.48.45-1.99.86-.13-.31-.3-.63-.53-.94-.64-.87-1.46-1.3-2.01-1.58-.02,0-.03-.02-.05-.03-.04-.13-.08-.29-.12-.41-.3-1.08-.87-3.1-2.99-4.15-.89-.44-1.78-.66-2.67-.66-2.15,0-3.59,1.28-4.45,2.04-.07.06-.15.13-.22.2-.25-.12-.55-.25-.88-.34-.69-.19-1.35-.29-2.03-.29-.41,0-.76.03-1.05.06-.23.02-.41.04-.59.04h0s-.07-.01-.12-.02c.02-.21.05-.44.07-.62.1-.79.22-1.76.09-2.84-.45-3.81-4.05-4.41-5.59-4.66-.43-.07-1.01-.17-1.21-.26-.18-.09-.63-.5-.92-.76-.8-.73-1.7-1.55-2.97-1.88-.25-.07-.51-.11-.76-.13-.1-.22-.22-.44-.38-.65-.02-.02-.03-.04-.05-.06.17-.31.33-.65.45-1.05.12-.43.18-.81.21-1.13.86-.25,2.24-.69,3.21-2.01.66-.9.85-1.78.89-2.44.65-.47,1.44-1.18,1.78-2.33.29-.98.25-1.82.07-2.51.71-.95,1.19-2.51-.04-4.82.14-.65.52-1.69.84-2.31.46-.14,1.06-.37,1.63-.87.83-.73,1.31-1.78,1.36-2.97.04-.96-.22-1.98-.6-2.92.28.22.51.46.66.7.33.52.57,1.67.78,2.68.47,2.24,1.05,5.02,3.41,6.67,2.16,1.51,5.8,1.68,7.26,1.68.88,0,2.15-.06,3.23-.34.52-.13.99-.33,1.42-.52.03.09.05.18.08.27,1.21,3.56,4.11,5.68,7.76,5.68.67,0,1.36-.07,2.05-.22.93-.19,1.7-.64,2.26-.96.12-.07.29-.17.39-.22,2.96-.61,3.76-.86,6.5-1.8,1.18-.4,2.05-.48,3.23-.48.24,0,.48,0,.72,0,.28,0,.56,0,.85,0,.46,0,1.16,0,1.96-.07,2.73-.21,3.87-.99,4.99-1.91.34-.28.58-.48,1.03-.72.89-.46,1.99-.68,3.46-.68,1.13,0,2.33.12,3.6.25,1.36.14,2.77.28,4.2.28s2.56-.13,3.66-.4c1.9-.46,3.44-1.43,4.8-2.28,1.62-1.01,2.67-1.63,3.88-1.65h.03c.72,0,1.7.28,2.66.55,1.24.35,2.52.72,3.9.74h.07c1.04,0,1.92-.28,2.56-.49.15-.05.33-.1.47-.15.2.13.45.31.62.43.45.32.92.65,1.39.9.17.09.35.16.51.23.33.54.83,1.1,1.62,1.47.9.43,1.76.43,2.27.43h.1c.06.05.13.1.19.14.5.38,1.12.86,1.95,1.12.5.15,1.02.23,1.55.23.42,0,.8-.05,1.14-.11-.08.78-.26,1.63-.44,2.1-.1.1-.26.24-.38.35-.27.24-.57.52-.85.82-.39.36-.68.75-.87,1.15-.17.15-.35.3-.55.47-.14.12-.32.28-.49.42-.39-.44-.92-.98-1.62-1.46-.59-.4-1.22-.69-1.78-.94-.29-.13-.56-.26-.75-.36-.07-.04-.22-.16-.35-.26-.6-.48-1.73-1.39-3.48-1.39-.21,0-.43.01-.64.04-1.15.14-2.06.72-2.87,1.24-.27.17-.68.43-.84.49-.37.12-.92.19-1.49.26-.68.09-1.45.19-2.23.4-1.18.33-2.13.88-2.89,1.32-.47.28-.88.51-1.22.63-.66.23-1.3.37-1.98.51-1.67.36-3.56.78-5.72,2.47-1.52,1.19-2.23,2.43-2.81,3.43-.26.44-.48.82-.75,1.18-.33.43-.78.66-1.6,1.09-1.5.77-3.77,1.92-5.2,5.3-.8,1.89-.77,3.46-.75,4.61,0,.35.01.66,0,.9-.12.09-.26.18-.37.26-.57.39-1.39.96-2.06,1.81-.33-.09-.68-.2-1.03-.31-1.22-.38-2.61-.81-4.14-.81-.96,0-1.87.17-2.72.51-.57.23-1,.53-1.28.74-.05.04-.11.08-.16.11-.2.07-.55.14-.87.2-.83.16-1.85.37-2.84.96-2.73,1.66-2.62,4.28-2.57,5.54.01.33.03.65,0,.85-.03.05-.09.13-.13.19,0,0,0,0,0,0Z"/>
    <path class="cls-2" d="M124.54,180.2c-.22-.23-.53-.61-.74-.88-.6-.75-1.29-1.6-2.18-2.19-.31-.21-.64-.37-.96-.5-.04-.74-.25-1.55-.8-2.35-.08-.12-.17-.23-.26-.34.02,0,.04.01.06.02.55.15,1.31.37,2.23.37.16,0,.32,0,.47-.02,1.58-.13,5.92-2.19,6.89-2.94,1.59-1.24,2.29-3.19,1.87-5.2-.48-2.3-2.32-4.23-4.58-4.8-.96-.25-2.16-.39-3.54-.56-1.49-.18-3.17-.39-4.57-.74-1.39-.35-1.92-.69-2.09-.82-.01-.09-.02-.22-.03-.32-.06-.64-.16-1.61-.72-2.63-.63-1.15-1.66-1.87-2.56-2.51-.34-.24-.84-.6-1-.77-.03-.06-.07-.19-.13-.44-.1-.38-.23-.9-.49-1.48-.31-.7-3.24-5.08-3.95-5.74-1.5-1.39-3.22-1.88-4.73-2.12.01-.04.02-.07.03-.11.41-1.4.01-2.56-.29-3.27.7-.71,1.89-1.82,2.62-2.45,1.98-1.71,3.99-3.08,5.99-4.08.82-.41,1.71-.78,2.66-1.17,2.18-.9,4.64-1.92,6.7-3.72,1.43-1.25,2.75-3.11,1.99-5.38.32-.01.59-.04.82-.06.2-.02.35-.03.47-.03.06,0,.14,0,.27.03.05.03.11.06.17.09.51.28,1.37.76,2.5.76.07,0,.14,0,.2,0,1.93-.1,3.2-1.23,4.05-1.98.05-.04.1-.09.16-.14.2.71.47,1.68,1.14,2.56.55.72,1.21,1.15,1.74,1.44.01,1.18.22,3.92,3.44,4.99.58.19,1.16.29,1.71.29,2.24,0,3.45-1.49,4.07-2.49.34.13.76.28,1.23.37.6.12,1.17.19,1.67.25.46.05,1.22.14,1.39.26h0s.03.03.08.12c.12.22.13.31.13.31-.02.12-.23.55-.37.83-.54,1.09-1.46,2.92-.87,5.38.1.43.25.8.41,1.11-.01.04-.02.07-.03.11-.18.61-.32,1.09-.57,1.49-.13.21-.68.67-1.05.97-1.11.92-2.62,2.18-2.98,4.21-.02,0-.03,0-.05,0-2.89.35-3.88,2.82-4.36,4.01-.07.19-.19.47-.24.56-.16.27-.48.61-.81.97-1.13,1.21-3.47,3.73-1.61,7.55.9,1.83,2.35,2.66,3.31,3.2.19.11.44.25.56.34.28.53.57,1.97.53,2.65-.17.13-.48.32-.71.45-.63.38-1.41.85-2.12,1.58-2.84,2.95-1.36,5.91-.73,7.17.05.1.11.22.16.33-.75.74-2.03,1.88-2.73,2.44-.01,0-.02,0-.03,0-.34-.06-.8-.14-1.36-.14-.18,0-.37,0-.55.03-2.83.27-5.35,2.4-6.36,5.03-.22.06-.42.11-.58.13Z"/>
  </g>
  <path class="cls-3" d="M125.01,235.74c-1.03-.1-1.56-1.34-.45-1.67s2.07,1.83.45,1.67Z"/>
</svg>